<svg width="28" height="28" viewBox="0 0 28 28" fill="none" xmlns="http://www.w3.org/2000/svg">
<path d="M6.51294 23.8002C6.95969 23.9964 7.45362 24.0497 7.93029 23.9531C8.40696 23.8565 8.84423 23.6145 9.18507 23.2587L14 18.3377L18.8149 23.2587C19.0394 23.4928 19.3069 23.6788 19.6018 23.8059C19.8967 23.9331 20.2132 23.9989 20.5331 23.9994C20.8618 23.9985 21.1871 23.9307 21.4903 23.8002C21.9407 23.6129 22.3257 23.2903 22.595 22.8747C22.8643 22.4591 23.0054 21.9697 22.9998 21.4704V8.20386C22.9985 7.08934 22.5671 6.02084 21.8002 5.23276C21.0333 4.44467 19.9936 4.00134 18.909 4L9.09098 4C8.00642 4.00134 6.96666 4.44467 6.19976 5.23276C5.43286 6.02084 5.00144 7.08934 5.00014 8.20386V21.4704C4.99486 21.9701 5.13643 22.4598 5.40633 22.8754C5.67624 23.2911 6.06191 23.6134 6.51294 23.8002V23.8002Z" stroke="#868686" stroke-width="2" stroke-linecap="round" stroke-linejoin="round"/>
</svg>
