<svg
    xmlns="http://www.w3.org/2000/svg"
    width="22"
    height="22"
    viewBox="0 0 22 22"
    fill="none"
>
    <path
    d="M6.33366 15.6666H4.00033C3.38149 15.6666 2.78799 15.4208 2.35041 14.9832C1.91282 14.5456 1.66699 13.9521 1.66699 13.3333V3.99996C1.66699 3.38112 1.91282 2.78763 2.35041 2.35004C2.78799 1.91246 3.38149 1.66663 4.00033 1.66663H13.3337C13.9525 1.66663 14.546 1.91246 14.9836 2.35004C15.4212 2.78763 15.667 3.38112 15.667 3.99996V6.33329M8.66699 20.3333H18.0003C18.6192 20.3333 19.2127 20.0875 19.6502 19.6499C20.0878 19.2123 20.3337 18.6188 20.3337 18V8.66663C20.3337 8.04779 20.0878 7.4543 19.6502 7.01671C19.2127 6.57913 18.6192 6.33329 18.0003 6.33329H8.66699C8.04815 6.33329 7.45466 6.57913 7.01708 7.01671C6.57949 7.4543 6.33366 8.04779 6.33366 8.66663V18C6.33366 18.6188 6.57949 19.2123 7.01708 19.6499C7.45466 20.0875 8.04815 20.3333 8.66699 20.3333Z"
    stroke="#868686"
    stroke-width="1.5"
    stroke-linecap="round"
    stroke-linejoin="round"
    />
</svg>