<svg width="24" height="24" viewBox="0 0 24 24" fill="none" xmlns="http://www.w3.org/2000/svg">
<g clipPath="url(#clip0_8639_11282)">
<path d="M23.6987 1.71844L5.18884 20.2233C5.58901 20.4183 6.02792 20.5208 6.47305 20.5231H9.64313C9.90833 20.5224 10.1628 20.6279 10.3497 20.816L12.0677 22.533C12.9993 23.471 14.2665 23.999 15.5886 24.0001C16.1344 23.9995 16.6765 23.9101 17.1936 23.7352C18.9761 23.1508 20.2726 21.6056 20.5386 19.7486L23.9155 3.70826C24.0768 3.0399 24.0001 2.33631 23.6987 1.71844Z" fill="#2b9e76"/>
<path d="M20.3208 0.0774024L4.31942 3.44841C1.58535 3.82402 -0.326562 6.34494 0.0490558 9.07902C0.19742 10.1587 0.694699 11.1604 1.46514 11.9313L3.18212 13.6483C3.36979 13.8359 3.47515 14.0905 3.47496 14.3558V17.5259C3.47726 17.9711 3.57976 18.41 3.77478 18.8101L22.2816 0.3003C21.6735 0.00141685 20.9805 -0.0773326 20.3208 0.0774024Z" fill="#2b9e76"/>
</g>
<defs>
<clipPath id="clip0_8639_11282">
<rect width="24" height="24" fill="white"/>
</clipPath>
</defs>
</svg>
