<svg
width="24"
height="24"
viewBox="0 0 29 25"
fill="none"
xmlns="http://www.w3.org/2000/svg"
>
<path
fillRule="evenodd"
clipRule="evenodd"
d="M13.9353 0.548801C12.7185 0.771051 11.8439 1.48745 11.4749 2.56416C11.3674 2.87764 11.3448 3.05566 11.348 3.5653C11.3526 4.31855 11.4488 4.71143 11.8171 5.48125C12.3736 6.6448 13.1184 7.52845 15.1388 9.42181C15.9168 10.151 16.8238 11.0048 17.1544 11.3192L17.7553 11.8907L19.6457 10.0385C22.8519 6.89686 23.5901 6.06968 24.0065 5.15261C24.5559 3.94224 24.3527 2.63009 23.4648 1.65532C22.8171 0.944276 22.0022 0.55483 21.0627 0.507326C20.3915 0.473402 20.0073 0.552576 19.4281 0.844195C19.0586 1.03021 18.861 1.18608 18.3608 1.68575L17.747 2.29891L17.1729 1.74875C16.5437 1.14585 16.0679 0.831235 15.5319 0.663814C15.1264 0.537079 14.3181 0.478925 13.9353 0.548801ZM0 17.1742V22.3585H2.88495H5.7699V17.1742V11.9899H2.88495H0V17.1742ZM6.94628 17.1652V21.5014L9.34107 22.7411C11.8173 24.0229 12.3726 24.2602 13.2606 24.4159C14.223 24.5848 15.426 24.495 16.3537 24.1851C16.8092 24.0329 20.1946 22.361 21.4831 21.6519C23.3574 20.6204 26.3192 18.7446 27.69 17.7209C28.6413 17.0104 28.9286 16.0434 28.4542 15.1482C28.1594 14.5918 27.6824 14.2555 27.0154 14.1339C26.3326 14.0093 26.1585 14.0706 23.63 15.3256L21.35 16.4572L21.1183 16.9988C20.9909 17.2968 20.7868 17.6738 20.6646 17.8367C20.124 18.5579 19.1935 19.0441 18.0595 19.1981C17.3255 19.2978 15.6775 19.3729 15.4383 19.3176C15.0976 19.239 14.9289 19.033 14.9289 18.6957C14.9289 18.4657 14.9562 18.389 15.0843 18.2603L15.2396 18.104L16.6248 18.1012C18.1563 18.0981 18.3329 18.0704 19.0743 17.7156C19.5602 17.4831 19.9507 17.1401 20.1126 16.8039C20.3525 16.3052 20.1768 15.7081 19.6932 15.379C19.2977 15.1099 19.1756 15.0943 17.4431 15.0917L15.8119 15.0892L15.0623 14.6351C14.0119 13.9987 12.8763 13.4491 11.9588 13.1331L11.1757 12.8633L9.06098 12.8461L6.94628 12.8289V17.1652Z"
fill="white"
/>
</svg>