<?xml version="1.0" encoding="utf-8"?>
<!-- Generator: Adobe Illustrator 16.0.0, SVG Export Plug-In . SVG Version: 6.00 Build 0)  -->
<!DOCTYPE svg PUBLIC "-//W3C//DTD SVG 1.1//EN" "http://www.w3.org/Graphics/SVG/1.1/DTD/svg11.dtd">
<svg version="1.1" id="Layer_1" xmlns="http://www.w3.org/2000/svg" xmlns:xlink="http://www.w3.org/1999/xlink" x="0px" y="0px"
	 width="1024px" height="1024.001px" viewBox="0 0 1024 1024.001" enable-background="new 0 0 1024 1024.001" xml:space="preserve">
<rect x="0" fill="#FFFFFF" width="1024" height="1024.001"/>
<g>
	<rect y="1024.001" fill="#0F0F0F" width="1024" height="74.725"/>
	<g>
		<g>
			<path fill="#FFFFFF" d="M303.33,1048.044h4.639c3.648,0,6.656,0.961,9.018,2.881c2.38,1.9,3.567,4.641,3.567,8.209
				c0,3.676-1.177,6.479-3.541,8.422c-2.354,1.945-5.401,2.916-9.129,2.916h-4.554V1048.044z M306.129,1067.921h0.975
				c1.456,0,2.82-0.15,4.113-0.441c1.284-0.283,2.414-0.775,3.377-1.459c0.963-0.68,1.732-1.576,2.303-2.674
				c0.578-1.104,0.863-2.469,0.863-4.094c0-1.602-0.285-2.967-0.85-4.119c-0.563-1.139-1.352-2.027-2.364-2.67
				c-1.013-0.645-2.126-1.123-3.351-1.424c-1.219-0.293-2.575-0.451-4.092-0.451h-0.975V1067.921z"/>
			<path fill="#FFFFFF" d="M324.661,1063.957c0.037,1.242,0.438,2.326,1.19,3.246c0.775,0.908,1.772,1.363,3.002,1.363
				c0.977,0,1.773-0.215,2.4-0.666c0.623-0.447,1.22-1.129,1.772-2.041l2.259,1.283c-0.654,1.189-1.549,2.117-2.693,2.793
				c-1.137,0.67-2.396,1.02-3.766,1.02c-2.078,0-3.747-0.697-4.993-2.082c-1.235-1.416-1.847-3.154-1.847-5.238
				c0-2.195,0.583-4.012,1.754-5.426c1.153-1.385,2.823-2.078,5.029-2.078c2.143,0,3.757,0.693,4.852,2.078
				c1.109,1.389,1.664,3.162,1.664,5.336v0.412H324.661z M332.609,1061.931c-0.162-1.07-0.563-1.926-1.234-2.543
				c-0.67-0.619-1.532-0.947-2.605-0.947c-0.516,0-0.996,0.09-1.441,0.264c-0.451,0.162-0.841,0.414-1.199,0.721
				c-0.336,0.326-0.625,0.707-0.854,1.127c-0.23,0.424-0.381,0.895-0.46,1.379H332.609z"/>
			<path fill="#FFFFFF" d="M343.17,1059.742c-0.404-0.82-0.992-1.225-1.781-1.225c-0.372,0-0.715,0.127-1.015,0.396
				c-0.3,0.266-0.444,0.602-0.444,0.971c0,0.359,0.111,0.658,0.343,0.898c0.228,0.252,0.538,0.486,0.931,0.709
				c0.262,0.113,0.46,0.213,0.6,0.273c0.135,0.074,0.367,0.176,0.686,0.314c0.158,0.076,0.299,0.15,0.42,0.182
				c0.112,0.043,0.203,0.068,0.262,0.121c0.991,0.449,1.775,0.984,2.353,1.574c0.575,0.6,0.86,1.389,0.86,2.387
				c0,1.311-0.475,2.406-1.428,3.297c-0.932,0.879-2.047,1.314-3.365,1.314c-0.531,0-1.051-0.078-1.541-0.227
				c-0.5-0.148-0.965-0.359-1.387-0.629c-0.427-0.277-0.799-0.59-1.135-0.979c-0.323-0.387-0.58-0.822-0.75-1.303l2.291-1.031
				c0.647,1.186,1.494,1.779,2.521,1.779c0.422,0,0.808-0.109,1.166-0.334c0.355-0.227,0.615-0.52,0.788-0.873
				c0.168-0.348,0.202-0.717,0.103-1.125c-0.099-0.408-0.412-0.799-0.924-1.146l-2.621-1.4c-0.458-0.236-0.848-0.463-1.188-0.707
				c-0.336-0.246-0.616-0.504-0.832-0.766c-0.219-0.273-0.382-0.564-0.487-0.893c-0.108-0.324-0.167-0.705-0.167-1.152
				c0-1.127,0.394-2.068,1.194-2.852c0.786-0.795,1.764-1.188,2.914-1.188c1.741,0,3.013,0.816,3.808,2.439L343.17,1059.742z"/>
			<path fill="#FFFFFF" d="M352.783,1050.179c0,0.5-0.18,0.922-0.539,1.289c-0.355,0.352-0.793,0.514-1.308,0.514
				c-0.52,0-0.95-0.162-1.309-0.514c-0.356-0.367-0.536-0.789-0.536-1.289c0-0.514,0.18-0.951,0.536-1.332
				c0.358-0.369,0.789-0.539,1.309-0.539c0.515,0,0.952,0.17,1.308,0.539C352.604,1049.228,352.783,1049.666,352.783,1050.179z
				 M352.271,1070.472h-2.68v-13.928h2.68V1070.472z"/>
			<path fill="#FFFFFF" d="M369.596,1070.21c0,2.617-0.504,4.639-1.494,6.092c-0.984,1.434-2.76,2.143-5.293,2.143
				c-1.96,0-3.57-0.564-4.82-1.699c-1.229-1.129-1.87-2.664-1.904-4.605h2.673c0,1.244,0.39,2.205,1.149,2.898
				c0.76,0.691,1.769,1.027,3.023,1.027c1.524,0,2.57-0.449,3.137-1.34c0.561-0.896,0.844-2.158,0.844-3.771v-2.656h-0.054
				c-0.56,0.836-1.245,1.486-2.068,1.951c-0.825,0.471-1.716,0.705-2.663,0.705c-2.066,0-3.691-0.725-4.883-2.176
				c-1.188-1.453-1.783-3.24-1.783-5.357c0-2.012,0.604-3.715,1.813-5.121c1.217-1.443,2.787-2.17,4.73-2.17
				c2.047,0,3.662,0.936,4.854,2.801h0.054v-2.387h2.686V1070.21z M362.541,1068.566c1.405,0,2.507-0.477,3.299-1.459
				c0.816-0.982,1.219-2.191,1.219-3.6c0-1.381-0.402-2.568-1.219-3.543c-0.792-0.967-1.894-1.447-3.299-1.447
				c-1.33,0-2.398,0.486-3.217,1.484c-0.787,0.973-1.189,2.133-1.189,3.506c0,1.408,0.402,2.609,1.189,3.572
				C360.143,1068.072,361.211,1068.566,362.541,1068.566z"/>
			<path fill="#FFFFFF" d="M375.758,1058.417h0.048c0.401-0.729,0.981-1.301,1.733-1.691c0.748-0.398,1.578-0.596,2.468-0.596
				c0.911,0,1.683,0.143,2.321,0.414c0.639,0.279,1.145,0.676,1.535,1.191c0.385,0.518,0.662,1.154,0.825,1.887
				c0.177,0.75,0.253,1.592,0.253,2.551v8.299h-2.67v-7.971c0-1.377-0.205-2.369-0.6-3.008c-0.396-0.656-1.219-0.977-2.467-0.977
				c-0.463,0-0.846,0.041-1.165,0.127c-0.319,0.09-0.591,0.223-0.831,0.383c-0.238,0.174-0.433,0.377-0.598,0.58
				c-0.152,0.219-0.307,0.459-0.439,0.723c-0.061,0.133-0.121,0.311-0.166,0.531c-0.05,0.211-0.091,0.441-0.131,0.676
				c-0.041,0.223-0.078,0.447-0.096,0.678c-0.014,0.236-0.021,0.408-0.021,0.551v1.314v6.393h-2.684v-13.928h2.684V1058.417z"/>
			<path fill="#FFFFFF" d="M397.025,1044.644h2.678v14.223h0.057c1.235-1.822,2.849-2.736,4.855-2.736
				c1.945,0,3.518,0.727,4.732,2.17c1.207,1.406,1.814,3.109,1.814,5.121c0,2.117-0.607,3.904-1.786,5.357
				c-1.198,1.451-2.815,2.176-4.878,2.176c-0.949,0-1.842-0.234-2.669-0.705c-0.821-0.465-1.511-1.115-2.069-1.951h-0.057v2.174
				h-2.678V1044.644z M403.954,1068.566c1.417,0,2.516-0.477,3.313-1.459c0.812-0.982,1.21-2.191,1.21-3.6
				c0-1.381-0.398-2.568-1.21-3.543c-0.797-0.967-1.896-1.447-3.313-1.447c-1.328,0-2.397,0.486-3.211,1.484
				c-0.796,0.973-1.188,2.133-1.188,3.506c0,1.408,0.393,2.609,1.188,3.572C401.557,1068.072,402.626,1068.566,403.954,1068.566z"/>
			<path fill="#FFFFFF" d="M411.547,1056.544h3.123l4.699,8.844l4.371-8.844h3.012l-11.277,21.9h-3.037l5.477-10.355
				L411.547,1056.544z"/>
			<path fill="#FFFFFF" d="M440.261,1064.843l-2.56,5.629h-3.008l10.715-23.387l10.706,23.387h-3l-2.554-5.629H440.261z
				 M445.408,1053.218l-3.995,9.072h7.979L445.408,1053.218z"/>
			<path fill="#FFFFFF" d="M460.494,1070.472h-2.676v-25.828h2.676V1070.472z"/>
			<path fill="#FFFFFF" d="M467.1,1070.472h-2.678v-25.828h2.678V1070.472z"/>
			<path fill="#FFFFFF" d="M477.273,1059.826v2.227h-6.516v-2.227H477.273z"/>
			<path fill="#FFFFFF" d="M487.678,1047.355c-0.828-0.377-1.42-0.564-1.774-0.564c-0.58,0-0.993,0.174-1.247,0.545
				c-0.262,0.367-0.439,0.814-0.539,1.357c-0.058,0.393-0.088,0.707-0.11,0.936c-0.005,0.234-0.005,0.543-0.005,0.945v5.971h3.676
				v2.498h-3.676v11.43h-2.688v-11.43H480.1v-2.498h1.215v-6.777c0-3.652,1.502-5.482,4.504-5.482c0.652,0,1.273,0.129,1.859,0.359
				V1047.355z"/>
			<path fill="#FFFFFF" d="M491.816,1058.802h0.09c0.34-0.826,0.826-1.484,1.492-1.955c0.66-0.475,1.432-0.717,2.322-0.717
				c0.741,0,1.463,0.227,2.211,0.688l-1.225,2.436c-0.439-0.387-0.986-0.561-1.637-0.561c-1.381,0-2.285,0.555-2.742,1.664
				c-0.199,0.516-0.338,1.027-0.404,1.531c-0.063,0.498-0.107,1.092-0.107,1.746v6.838h-2.668v-13.928h2.668V1058.802z"/>
			<path fill="#FFFFFF" d="M501.023,1063.957c0.032,1.242,0.434,2.326,1.193,3.246c0.769,0.908,1.762,1.363,2.996,1.363
				c0.961,0,1.775-0.215,2.396-0.666c0.625-0.447,1.217-1.129,1.766-2.041l2.259,1.283c-0.647,1.189-1.544,2.117-2.685,2.793
				c-1.14,0.67-2.399,1.02-3.768,1.02c-2.074,0-3.746-0.697-4.988-2.082c-1.234-1.416-1.85-3.154-1.85-5.238
				c0-2.195,0.586-4.012,1.752-5.426c1.15-1.385,2.822-2.078,5.028-2.078c2.142,0,3.763,0.693,4.86,2.078
				c1.101,1.389,1.649,3.162,1.649,5.336v0.412H501.023z M508.965,1061.931c-0.162-1.07-0.572-1.926-1.234-2.543
				c-0.663-0.619-1.529-0.947-2.606-0.947c-0.517,0-0.993,0.09-1.444,0.264c-0.439,0.162-0.844,0.414-1.181,0.721
				c-0.354,0.326-0.642,0.707-0.879,1.127c-0.222,0.424-0.374,0.895-0.448,1.379H508.965z"/>
			<path fill="#FFFFFF" d="M515.551,1063.957c0.033,1.242,0.428,2.326,1.182,3.246c0.766,0.908,1.775,1.363,3.002,1.363
				c0.975,0,1.775-0.215,2.393-0.666c0.631-0.447,1.215-1.129,1.777-2.041l2.254,1.283c-0.643,1.189-1.535,2.117-2.689,2.793
				c-1.146,0.67-2.395,1.02-3.766,1.02c-2.09,0-3.748-0.697-5.006-2.082c-1.221-1.416-1.833-3.154-1.833-5.238
				c0-2.195,0.579-4.012,1.758-5.426c1.145-1.385,2.826-2.078,5.025-2.078c2.133,0,3.756,0.693,4.842,2.078
				c1.121,1.389,1.668,3.162,1.668,5.336v0.412H515.551z M523.489,1061.931c-0.156-1.07-0.576-1.926-1.248-2.543
				c-0.658-0.619-1.521-0.947-2.592-0.947c-0.523,0-0.996,0.09-1.449,0.264c-0.443,0.162-0.834,0.414-1.182,0.721
				c-0.354,0.326-0.646,0.707-0.863,1.127c-0.232,0.424-0.387,0.895-0.467,1.379H523.489z"/>
			<path fill="#FFFFFF" d="M534.825,1059.826v2.227h-6.523v-2.227H534.825z"/>
			<path fill="#FFFFFF" d="M548.717,1068.298h-0.063c-0.553,0.836-1.244,1.486-2.066,1.951c-0.826,0.471-1.717,0.705-2.66,0.705
				c-2.068,0-3.693-0.725-4.877-2.176c-1.193-1.453-1.799-3.24-1.799-5.357c0-2.012,0.609-3.715,1.822-5.121
				c1.213-1.443,2.785-2.17,4.732-2.17c2.002,0,3.619,0.914,4.848,2.736h0.063v-14.223h2.672v25.828h-2.672V1068.298z
				 M544.342,1068.566c1.404,0,2.514-0.477,3.299-1.459c0.814-0.982,1.227-2.191,1.227-3.6c0-1.381-0.412-2.568-1.227-3.543
				c-0.785-0.967-1.895-1.447-3.299-1.447c-1.332,0-2.402,0.486-3.213,1.484c-0.793,0.973-1.189,2.133-1.189,3.506
				c0,1.408,0.396,2.609,1.189,3.572C541.94,1068.072,543.01,1068.566,544.342,1068.566z"/>
			<path fill="#FFFFFF" d="M555.768,1058.273c1.451-1.426,3.217-2.143,5.305-2.143c2.08,0,3.832,0.717,5.25,2.143
				c1.455,1.418,2.174,3.197,2.174,5.271c0,2.076-0.719,3.83-2.174,5.275c-1.418,1.418-3.17,2.135-5.25,2.135
				c-2.088,0-3.854-0.717-5.305-2.135c-1.43-1.445-2.145-3.199-2.145-5.275C553.624,1061.47,554.338,1059.691,555.768,1058.273z
				 M556.299,1063.544c0,1.281,0.48,2.424,1.412,3.406c0.906,0.971,2.035,1.439,3.361,1.439c1.299,0,2.428-0.469,3.354-1.439
				c0.936-0.982,1.398-2.125,1.398-3.406c0-1.313-0.463-2.463-1.398-3.426c-0.926-0.955-2.055-1.426-3.354-1.426
				c-1.326,0-2.455,0.471-3.361,1.426C556.78,1061.082,556.299,1062.232,556.299,1063.544z"/>
			<path fill="#FFFFFF" d="M575.709,1065.423l4.094-9.646l4.082,9.646l4.055-8.879h3.023l-7.078,14.41l-4.082-9.313l-4.094,9.313
				l-7.084-14.41h3.033L575.709,1065.423z"/>
			<path fill="#FFFFFF" d="M594.991,1058.417h0.057c0.395-0.729,0.969-1.301,1.721-1.691c0.758-0.398,1.582-0.596,2.469-0.596
				c0.916,0,1.697,0.143,2.328,0.414c0.633,0.279,1.141,0.676,1.533,1.191c0.385,0.518,0.662,1.154,0.822,1.887
				c0.172,0.75,0.256,1.592,0.256,2.551v8.299h-2.678v-7.971c0-1.377-0.182-2.369-0.592-3.008c-0.396-0.656-1.213-0.977-2.477-0.977
				c-0.447,0-0.834,0.041-1.158,0.127c-0.309,0.09-0.592,0.223-0.832,0.383c-0.236,0.174-0.436,0.377-0.592,0.58
				c-0.164,0.219-0.313,0.459-0.441,0.723c-0.059,0.133-0.119,0.311-0.168,0.531c-0.053,0.211-0.102,0.441-0.133,0.676
				c-0.043,0.223-0.063,0.447-0.098,0.678c-0.006,0.236-0.018,0.408-0.018,0.551v1.314v6.393h-2.68v-13.928h2.68V1058.417z"/>
			<path fill="#FFFFFF" d="M610.668,1070.472h-2.684v-25.828h2.684V1070.472z"/>
			<path fill="#FFFFFF" d="M615.368,1058.273c1.436-1.426,3.211-2.143,5.301-2.143c2.08,0,3.826,0.717,5.27,2.143
				c1.441,1.418,2.158,3.197,2.158,5.271c0,2.076-0.717,3.83-2.158,5.275c-1.443,1.418-3.189,2.135-5.27,2.135
				c-2.09,0-3.865-0.717-5.301-2.135c-1.438-1.445-2.146-3.199-2.146-5.275C613.221,1061.47,613.93,1059.691,615.368,1058.273z
				 M615.905,1063.544c0,1.281,0.469,2.424,1.395,3.406c0.912,0.971,2.037,1.439,3.369,1.439c1.301,0,2.426-0.469,3.365-1.439
				c0.924-0.982,1.389-2.125,1.389-3.406c0-1.313-0.465-2.463-1.389-3.426c-0.939-0.955-2.064-1.426-3.365-1.426
				c-1.332,0-2.457,0.471-3.369,1.426C616.374,1061.082,615.905,1062.232,615.905,1063.544z"/>
			<path fill="#FFFFFF" d="M643.608,1070.472h-2.684v-2.174h-0.055c-1.191,1.762-2.773,2.656-4.736,2.656
				c-2.041,0-3.668-0.725-4.879-2.176c-1.189-1.453-1.785-3.24-1.785-5.357c0-2.012,0.6-3.715,1.818-5.121
				c1.207-1.443,2.797-2.17,4.752-2.17c1.992,0,3.6,0.914,4.83,2.736h0.055v-2.322h2.684V1070.472z M636.551,1068.566
				c1.42,0,2.506-0.477,3.305-1.459c0.811-0.982,1.219-2.191,1.219-3.6c0-1.381-0.408-2.568-1.219-3.543
				c-0.799-0.967-1.885-1.447-3.305-1.447c-1.326,0-2.4,0.486-3.207,1.484c-0.797,0.973-1.201,2.133-1.201,3.506
				c0,1.408,0.404,2.609,1.201,3.572C634.151,1068.072,635.225,1068.566,636.551,1068.566z"/>
			<path fill="#FFFFFF" d="M657.465,1068.298h-0.051c-0.561,0.836-1.26,1.486-2.07,1.951c-0.824,0.471-1.709,0.705-2.662,0.705
				c-2.068,0-3.697-0.725-4.889-2.176c-1.186-1.453-1.783-3.24-1.783-5.357c0-2.012,0.617-3.715,1.818-5.121
				c1.211-1.443,2.785-2.17,4.738-2.17c2,0,3.605,0.914,4.848,2.736h0.051v-14.223h2.684v25.828h-2.684V1068.298z M653.096,1068.566
				c1.404,0,2.5-0.477,3.295-1.459c0.814-0.982,1.223-2.191,1.223-3.6c0-1.381-0.408-2.568-1.223-3.543
				c-0.795-0.967-1.891-1.447-3.295-1.447c-1.332,0-2.404,0.486-3.213,1.484c-0.793,0.973-1.193,2.133-1.193,3.506
				c0,1.408,0.4,2.609,1.193,3.572C650.692,1068.072,651.764,1068.566,653.096,1068.566z"/>
			<path fill="#FFFFFF" d="M667.825,1069.222c0,0.477-0.166,0.877-0.492,1.215c-0.35,0.342-0.762,0.518-1.238,0.518
				s-0.883-0.176-1.207-0.518c-0.346-0.338-0.514-0.738-0.514-1.215c0-0.455,0.168-0.861,0.514-1.205
				c0.324-0.344,0.73-0.514,1.207-0.514s0.889,0.17,1.238,0.514C667.659,1068.361,667.825,1068.767,667.825,1069.222z"/>
			<path fill="#FFFFFF" d="M682.461,1060.501c-1.107-1.248-2.443-1.873-3.979-1.873c-1.297,0-2.404,0.49-3.309,1.459
				c-0.9,0.984-1.328,2.143-1.328,3.42c0,1.453,0.428,2.633,1.328,3.539c0.934,0.941,2.096,1.404,3.475,1.404
				c1.43,0,2.705-0.633,3.813-1.844v3.418c-1.15,0.613-2.428,0.93-3.836,0.93c-2.064,0-3.834-0.717-5.303-2.123
				c-1.445-1.379-2.16-3.113-2.16-5.197c0-2.143,0.715-3.943,2.16-5.361c1.453-1.426,3.271-2.143,5.449-2.143
				c1.438,0,2.662,0.309,3.689,0.914V1060.501z"/>
			<path fill="#FFFFFF" d="M686.241,1058.273c1.451-1.426,3.219-2.143,5.297-2.143c2.082,0,3.848,0.717,5.262,2.143
				c1.459,1.418,2.174,3.197,2.174,5.271c0,2.076-0.715,3.83-2.174,5.275c-1.414,1.418-3.18,2.135-5.262,2.135
				c-2.078,0-3.846-0.717-5.297-2.135c-1.428-1.445-2.145-3.199-2.145-5.275C684.096,1061.47,684.813,1059.691,686.241,1058.273z
				 M686.78,1063.544c0,1.281,0.469,2.424,1.4,3.406c0.898,0.971,2.035,1.439,3.357,1.439c1.307,0,2.436-0.469,3.361-1.439
				c0.936-0.982,1.398-2.125,1.398-3.406c0-1.313-0.463-2.463-1.398-3.426c-0.926-0.955-2.055-1.426-3.361-1.426
				c-1.322,0-2.459,0.471-3.357,1.426C687.249,1061.082,686.78,1062.232,686.78,1063.544z"/>
			<path fill="#FFFFFF" d="M704.008,1058.3h0.059c0.395-0.637,0.912-1.152,1.59-1.559c0.666-0.414,1.363-0.611,2.09-0.611
				c1.736,0,3.07,0.82,4.027,2.473c0.432-0.754,1.037-1.359,1.803-1.811c0.756-0.443,1.594-0.662,2.473-0.662
				c3.086,0,4.617,2.004,4.617,6.004v8.338h-2.672v-7.889c0-0.352-0.012-0.707-0.055-1.047c-0.02-0.359-0.086-0.695-0.156-1.012
				c-0.086-0.338-0.197-0.641-0.357-0.918c-0.162-0.264-0.385-0.525-0.654-0.74c-0.357-0.238-0.818-0.35-1.365-0.35
				c-0.566,0-1.031,0.111-1.426,0.35c-0.389,0.215-0.674,0.492-0.887,0.809c-0.211,0.33-0.377,0.75-0.486,1.242
				c-0.115,0.492-0.195,0.947-0.227,1.344c-0.037,0.391-0.045,0.85-0.045,1.373v6.838h-2.684v-7.381c0-0.473,0-0.861-0.02-1.184
				c-0.027-0.33-0.086-0.721-0.186-1.195c-0.094-0.516-0.221-0.887-0.383-1.137c-0.162-0.275-0.414-0.512-0.738-0.738
				c-0.35-0.213-0.746-0.32-1.223-0.32c-1.369,0-2.254,0.586-2.654,1.773c-0.178,0.57-0.293,1.08-0.354,1.586
				c-0.063,0.484-0.088,1.07-0.088,1.758v6.838h-2.684v-13.928h2.684V1058.3z"/>
		</g>
		<g>
			<g>
				<path fill="#FFFFFF" d="M240.912,1062.253c12.637,0,25.266,0,37.9,0c1.147,0,1.147-1.766,0-1.766c-12.635,0-25.264,0-37.9,0
					C239.77,1060.488,239.77,1062.253,240.912,1062.253L240.912,1062.253z"/>
			</g>
			<g>
				<path fill="#FFFFFF" d="M745.184,1062.253c12.633,0,25.268,0,37.893,0c1.156,0,1.156-1.766,0-1.766c-12.625,0-25.26,0-37.893,0
					C744.038,1060.488,744.038,1062.253,745.184,1062.253L745.184,1062.253z"/>
			</g>
		</g>
	</g>
</g>
<g>
	<g>
		<path opacity="0.3" fill-rule="evenodd" clip-rule="evenodd" fill="#001732" d="M819.354,687.031
			c0-6.594-4.209-12.154-10.061-14.279c0-0.076,0.018-0.148,0.018-0.225c0-2.246-1.434-4.145-3.434-4.873l-0.729-2.227
			c0.137-0.199,0.232-0.43,0.232-0.693c0-0.51-0.313-0.939-0.742-1.141l-0.455-7.01c0-0.031-0.035-0.055-0.061-0.055
			c-0.039,0-0.076,0.023-0.076,0.055l-0.455,7.01c-0.434,0.201-0.748,0.631-0.748,1.141c0,0.264,0.1,0.496,0.244,0.699l-0.732,2.221
			c-2.004,0.729-3.439,2.621-3.439,4.873c0,0.076,0.016,0.148,0.021,0.225c-4.561,1.656-8.086,5.404-9.439,10.086v-17.691h0.273
			c0.664,0,1.199-0.535,1.199-1.203v-0.684c0-0.658-0.535-1.203-1.199-1.203h-1.633c0.076-0.447,0.119-0.889,0.119-1.363
			c0-3.217-1.707-6.043-4.264-7.617c-1.566-0.973-2.924-2.248-4.002-3.736c0.201-0.189,0.326-0.461,0.326-0.756
			c0-0.418-0.252-0.787-0.621-0.941l-0.26-4.07h-0.303l-0.264,4.07c-0.367,0.154-0.617,0.523-0.617,0.941
			c0,0.295,0.119,0.566,0.322,0.756c-1.066,1.494-2.42,2.762-4.008,3.736c-2.553,1.574-4.256,4.4-4.256,7.617
			c0,0.475,0.045,0.916,0.109,1.363h-1.576c-0.666,0-1.207,0.545-1.207,1.203v0.684c0,0.668,0.541,1.203,1.207,1.203h0.232v16.871
			h-3.912c1.014-1.9,1.564-3.932,1.564-6.029c0-7.328-6.678-13.742-16.684-17.324c-6.514-2.34-12.064-5.488-16.387-9.146
			c0.17-0.322,0.279-0.668,0.279-1.059c0-0.955-0.574-1.777-1.406-2.141l-0.594-9.242h-0.693l-0.592,9.242
			c-0.832,0.363-1.416,1.186-1.416,2.141c0,0.391,0.119,0.736,0.283,1.059c-3.959,3.369-8.906,6.25-14.754,8.523
			c-0.148-1.201-0.461-2.455-1.016-3.713c-0.873-2.045-2.645-3.906-4.66-5.59c-1.953-1.623-4.146-3.006-5.918-4.027
			c0.061-0.24,0.18-0.602,0.18-0.961c0-0.48-0.059-1.021-0.268-1.563c-0.242-0.541-0.754-1.082-1.326-1.502
			c-0.51-0.422-1.08-0.781-1.502-1.023l-0.031-0.9c0.123-0.119,0.184-0.18,0.242-0.361c0.121-0.119,0.15-0.301,0.15-0.479
			c0-0.182-0.061-0.363-0.15-0.543c-0.088-0.119-0.18-0.24-0.33-0.301l-0.029-0.842c0.057-0.059,0.148-0.18,0.18-0.24
			c0.092-0.121,0.121-0.24,0.121-0.42c0-0.121-0.061-0.303-0.121-0.42c-0.063-0.121-0.15-0.18-0.238-0.242l-0.063-0.9l-0.301-6.49
			c0-0.119-0.059-0.182-0.117-0.182c-0.092,0.063-0.154,0.121-0.154,0.182l-0.299,6.49l-0.029,0.9
			c-0.123,0.063-0.18,0.121-0.24,0.242c-0.09,0.117-0.123,0.299-0.123,0.42c0,0.18,0,0.299,0.09,0.42
			c0.033,0.061,0.123,0.182,0.213,0.24l-0.063,0.842c-0.117,0.061-0.24,0.182-0.297,0.301c-0.123,0.18-0.184,0.361-0.184,0.543
			c0,0.178,0.061,0.359,0.15,0.479c0.063,0.182,0.152,0.242,0.273,0.361l-0.061,0.9c-0.422,0.242-0.963,0.602-1.504,1.023
			c-0.541,0.42-1.051,0.961-1.322,1.502c-0.211,0.541-0.27,1.082-0.24,1.563c0,0.359,0.092,0.721,0.18,0.961
			c-1.803,1.021-3.965,2.404-5.918,4.027c-1.006,0.842-1.959,1.727-2.77,2.656c-5.814-14.256-19.414-24.473-35.535-25.377v-1.457
			c0-0.525-0.432-0.955-0.955-0.955h-0.744l-0.611-15.324c1.701,0.58,3.545,0.801,5.438,0.467c3.053-0.535,5.586-2.266,7.219-4.627
			c-1.176,0.725-2.494,1.244-3.936,1.496c-6.012,1.055-11.764-2.975-12.814-8.994c-0.52-2.982,0.193-5.887,1.781-8.188
			c-3.717,2.316-5.865,6.732-5.061,11.32c0.678,3.865,3.297,6.885,6.674,8.293l-0.598,15.557h-0.762
			c-0.248,0-0.48,0.096-0.656,0.271c-0.176,0.174-0.271,0.412-0.271,0.656v1.516c-14.947,1.08-27.662,10.17-33.867,23.014
			l-0.127-19.344h0.529c0.867,0,1.584-0.717,1.584-1.57c0-0.855-0.717-1.561-1.584-1.561h-0.529l-0.123-21.74h0.652
			c0.766,0,1.408-0.617,1.408-1.383c0-0.654-0.453-1.207-1.057-1.357v-6.51h0.553c0.402,0,0.727-0.328,0.727-0.729
			c0-0.389-0.324-0.705-0.727-0.705h-0.68c0.402-1.168,0.881-3.404-0.113-5.68c-0.465-1.057-1.418-2.061-2.475-2.941
			c-1.045-0.854-2.199-1.584-3.143-2.111c0.051-0.15,0.1-0.326,0.1-0.541c0.014-0.264-0.012-0.541-0.15-0.814
			c-0.113-0.303-0.389-0.58-0.691-0.807c-0.262-0.213-0.564-0.389-0.791-0.514l-0.025-0.492c0.051-0.049,0.113-0.113,0.139-0.176
			c0.051-0.086,0.076-0.174,0.076-0.262c0-0.104-0.025-0.215-0.088-0.289c-0.025-0.076-0.102-0.127-0.164-0.178l-0.012-0.426
			c0.023-0.039,0.074-0.088,0.1-0.152c0.035-0.049,0.051-0.125,0.051-0.201c0-0.074-0.016-0.162-0.063-0.225
			c-0.027-0.051-0.076-0.102-0.139-0.152l-0.014-0.453l-0.15-3.441c-0.012-0.051-0.037-0.076-0.088-0.076s-0.076,0.037-0.076,0.076
			l-0.15,3.441l-0.023,0.453c-0.051,0.051-0.102,0.102-0.127,0.152c-0.051,0.063-0.076,0.15-0.076,0.225
			c0,0.076,0.025,0.152,0.063,0.201c0.027,0.064,0.064,0.113,0.115,0.152l-0.025,0.426c-0.076,0.051-0.127,0.102-0.178,0.178
			c-0.049,0.074-0.074,0.186-0.074,0.289c0,0.088,0.025,0.176,0.074,0.262c0.025,0.063,0.076,0.127,0.127,0.176l-0.012,0.492
			c-0.215,0.125-0.518,0.301-0.791,0.514c-0.305,0.227-0.58,0.504-0.705,0.807c-0.127,0.273-0.15,0.551-0.139,0.814
			c0.012,0.215,0.051,0.391,0.088,0.541c-0.93,0.527-2.086,1.258-3.117,2.111c-1.082,0.881-2.01,1.885-2.488,2.941
			c-1.006,2.275-0.502,4.512-0.111,5.68h-0.816c-0.381,0-0.705,0.316-0.705,0.705c0,0.4,0.324,0.729,0.705,0.729h0.602v6.51
			c-0.615,0.139-1.08,0.691-1.08,1.357c0,0.766,0.627,1.383,1.383,1.383h0.678l-0.127,21.74h-0.551
			c-0.857,0-1.559,0.705-1.559,1.561c0,0.854,0.701,1.57,1.559,1.57h0.525l-0.07,12.633c-5.389-11.361-21.471-10.143-26.227-1.916
			v-2.58h0.221c0.578,0,1.021-0.445,1.021-0.979c0-0.621-0.443-1.066-1.021-1.066h-0.574c1.064-2.313,3.598-9.783,0.262-17.344
			c-1.289-3.025-3.91-5.781-6.893-8.27c-2.893-2.404-6.137-4.447-8.76-5.961c0.09-0.355,0.266-0.891,0.266-1.422
			c0-0.713-0.088-1.512-0.396-2.313c-0.359-0.801-1.115-1.602-1.961-2.223c-0.754-0.623-1.598-1.158-2.223-1.514l-0.045-1.332
			c0.182-0.178,0.27-0.268,0.357-0.535c0.18-0.178,0.223-0.445,0.223-0.709c0-0.27-0.09-0.537-0.223-0.803
			c-0.131-0.178-0.268-0.357-0.488-0.445l-0.045-1.246c0.086-0.088,0.221-0.266,0.266-0.355c0.137-0.178,0.18-0.355,0.18-0.621
			c0-0.178-0.088-0.447-0.18-0.623c-0.09-0.178-0.221-0.266-0.354-0.355l-0.09-1.334l-0.445-9.605c0-0.178-0.088-0.268-0.176-0.268
			c-0.135,0.09-0.227,0.178-0.227,0.268l-0.443,9.605l-0.043,1.334c-0.182,0.09-0.266,0.178-0.355,0.355
			c-0.135,0.176-0.18,0.445-0.18,0.623c0,0.266,0,0.443,0.133,0.621c0.047,0.09,0.18,0.268,0.313,0.355l-0.092,1.246
			c-0.174,0.088-0.354,0.268-0.441,0.445c-0.178,0.266-0.268,0.533-0.268,0.803c0,0.264,0.09,0.531,0.223,0.709
			c0.09,0.268,0.225,0.357,0.402,0.535l-0.09,1.332c-0.623,0.355-1.422,0.891-2.223,1.514c-0.801,0.621-1.557,1.422-1.959,2.223
			c-0.313,0.801-0.398,1.6-0.357,2.313c0,0.531,0.137,1.066,0.27,1.422c-2.67,1.514-5.871,3.557-8.758,5.961
			c-2.98,2.488-5.65,5.244-6.941,8.27c-3.334,7.561-0.756,15.031,0.264,17.344h-0.529c-0.58,0-1.025,0.445-1.025,1.066
			c0,0.533,0.445,0.979,1.025,0.979h0.486v2.58h-4.797l-0.092-45.805h1.422c0.936,0,1.689-0.801,1.689-1.689
			c0-0.977-0.754-1.689-1.689-1.689h-1.422l-0.133-25.348h0.49c0.799,0,1.512-0.623,1.512-1.424c0-0.889-0.713-1.512-1.512-1.512
			h-0.539l-0.084-20.544h0.623c0.711,0,1.332-0.622,1.332-1.334c0-0.623-0.447-1.157-1.023-1.244v-6.227h0.535
			c0.398,0,0.668-0.268,0.668-0.624s-0.27-0.711-0.668-0.711h-0.621c0.354-1.068,0.842-3.201-0.133-5.335
			c-0.447-0.979-1.338-1.959-2.314-2.758c-0.98-0.889-2.092-1.513-2.98-2.046c0.045-0.088,0.09-0.267,0.09-0.534
			c0-0.178-0.045-0.442-0.137-0.712c-0.133-0.355-0.354-0.621-0.664-0.8c-0.266-0.177-0.535-0.354-0.76-0.444v-0.533
			c0.049,0,0.092-0.088,0.092-0.179c0.088,0,0.088-0.089,0.088-0.178c0-0.088,0-0.179-0.088-0.267c0-0.089-0.092-0.178-0.176-0.178
			v-0.444c0.084,0,0.084-0.088,0.133-0.088c0.043-0.091,0.043-0.18,0.043-0.27c0,0,0-0.088-0.092-0.178
			c0-0.087-0.041-0.087-0.084-0.087l-0.045-0.445l-0.137-3.291c0,0-0.043-0.089-0.09-0.089c-0.043,0-0.086,0.089-0.086,0.089
			l-0.133,3.291v0.445c-0.045,0-0.135,0-0.135,0.087c-0.043,0.09-0.086,0.178-0.086,0.178c0,0.09,0.043,0.179,0.086,0.27
			c0,0,0.045,0.088,0.09,0.088v0.444c-0.09,0-0.133,0.089-0.176,0.178c-0.049,0.088-0.09,0.179-0.09,0.267
			c0,0.089,0.041,0.178,0.09,0.178c0,0.091,0.086,0.179,0.131,0.179l-0.045,0.533c-0.176,0.09-0.445,0.268-0.711,0.444
			c-0.313,0.179-0.533,0.444-0.711,0.8c-0.09,0.27-0.09,0.534-0.09,0.712c0,0.268,0.045,0.446,0.09,0.534
			c-0.891,0.533-2.002,1.157-2.984,2.046c-1.018,0.799-1.91,1.778-2.353,2.758c-0.93,2.134-0.441,4.267-0.086,5.335h-0.758
			c-0.402,0-0.666,0.354-0.666,0.711s0.264,0.624,0.666,0.624h0.535v1.688c0,0.091,0,0.179-0.049,0.268l0.049,0.177v4.094
			c-0.578,0.087-1.025,0.621-1.025,1.244c0,0.712,0.623,1.334,1.334,1.334h0.625l-0.09,20.544h-0.535
			c-0.799,0-1.51,0.623-1.51,1.512c0,0.801,0.711,1.424,1.51,1.424h0.488l-0.133,25.348h-1.424c-0.928,0-1.689,0.713-1.689,1.689
			c0,0.889,0.762,1.689,1.689,1.689h1.383l-0.047,26.416h-2.535v-10.584h-5.783v-2.578h0.227c0.531,0,1.021-0.447,1.021-0.98
			c0-0.621-0.49-1.066-1.021-1.066h-0.535c1.021-2.313,3.555-9.785,0.266-17.344c-1.33-3.023-3.955-5.781-6.936-8.27
			c-2.893-2.402-6.137-4.449-8.758-5.961c0.131-0.357,0.219-0.889,0.307-1.512c0-0.623-0.088-1.422-0.445-2.223
			c-0.354-0.801-1.109-1.602-1.955-2.225c-0.754-0.623-1.6-1.156-2.223-1.512l-0.045-1.332c0.176-0.18,0.311-0.268,0.402-0.535
			c0.088-0.178,0.178-0.445,0.178-0.713s-0.09-0.533-0.178-0.799c-0.18-0.178-0.313-0.355-0.535-0.445l-0.045-1.244
			c0.133-0.09,0.223-0.268,0.311-0.357c0.09-0.178,0.178-0.355,0.178-0.623c0-0.176-0.088-0.443-0.178-0.623
			c-0.088-0.176-0.266-0.266-0.396-0.354l-0.049-1.334l-0.443-9.605c0-0.18-0.088-0.268-0.221-0.268
			c-0.137,0.088-0.221,0.178-0.221,0.268l-0.447,9.605l-0.043,1.334c-0.137,0.088-0.27,0.178-0.357,0.354
			c-0.135,0.18-0.18,0.447-0.18,0.623c0,0.268,0.045,0.445,0.135,0.623c0.092,0.09,0.18,0.268,0.313,0.357l-0.047,1.244
			c-0.174,0.09-0.355,0.268-0.488,0.445c-0.133,0.266-0.221,0.531-0.221,0.799s0.088,0.535,0.176,0.713
			c0.09,0.268,0.268,0.355,0.447,0.535l-0.088,1.332c-0.623,0.355-1.428,0.889-2.229,1.512s-1.6,1.424-1.953,2.225
			c-0.357,0.801-0.445,1.6-0.402,2.223c0.045,0.623,0.133,1.154,0.264,1.512c-2.619,1.512-5.822,3.559-8.756,5.961
			c-2.982,2.488-5.604,5.246-6.895,8.27c-3.332,7.559-0.756,15.031,0.223,17.344h-0.531c-0.535,0-0.982,0.445-0.982,1.066
			c0,0.533,0.447,0.98,0.982,0.98h0.531v2.578h-6.092v10.584h-4.4v-8.006c0.531-0.355,0.979-0.889,0.979-1.6
			c0-0.979-0.713-1.869-1.602-2.045v-9.875h0.846c0.574,0,1.064-0.531,1.064-1.064c0-0.625-0.49-1.066-1.064-1.066h-1.023
			c0.58-1.781,1.332-5.162-0.182-8.629c-0.711-1.602-2.133-3.115-3.734-4.445c-1.602-1.336-3.334-2.404-4.801-3.203
			c0.092-0.178,0.178-0.535,0.178-0.803c0-0.441,0-0.799-0.223-1.244c-0.225-0.443-0.578-0.889-1.066-1.244
			c-0.4-0.266-0.844-0.623-1.201-0.801v-0.711c0.09-0.09,0.176-0.178,0.176-0.268c0.09-0.09,0.133-0.268,0.133-0.355
			c0-0.178-0.043-0.357-0.133-0.443c-0.086-0.18-0.176-0.268-0.266-0.268v-0.713c0.045,0,0.09-0.088,0.135-0.178
			c0.045-0.088,0.088-0.18,0.088-0.354c0-0.09-0.043-0.18-0.088-0.268c-0.045-0.09-0.135-0.18-0.227-0.268v-0.711l-0.262-5.158
			c0-0.088-0.047-0.18-0.092-0.18c-0.084,0-0.133,0.092-0.133,0.18l-0.223,5.158l-0.043,0.711c-0.092,0.088-0.133,0.178-0.221,0.268
			c-0.045,0.088-0.092,0.178-0.092,0.268c0,0.174,0.047,0.266,0.092,0.354c0.043,0.09,0.088,0.178,0.176,0.178v0.713
			c-0.133,0-0.221,0.088-0.268,0.268c-0.088,0.086-0.178,0.266-0.178,0.443c0,0.088,0.09,0.266,0.133,0.355
			c0.045,0.09,0.137,0.178,0.225,0.268l-0.045,0.711c-0.313,0.178-0.756,0.535-1.201,0.801c-0.441,0.355-0.846,0.801-1.07,1.244
			c-0.172,0.445-0.221,0.891-0.172,1.244c0,0.268,0.041,0.625,0.088,0.803c-1.379,0.799-3.117,1.867-4.713,3.203
			c-1.605,1.33-3.027,2.844-3.74,4.445c-1.512,3.467-0.801,6.848-0.178,8.629h-1.246c-0.574,0-1.064,0.441-1.064,1.066
			c0,0.533,0.49,1.064,1.064,1.064h0.893v9.875c-0.893,0.176-1.6,1.066-1.6,2.045c0,0.711,0.398,1.244,0.889,1.6v8.006h-0.066
			v-0.344c-3.813-26.445-20.154-48.375-60.967-64.775c-20.99-8.44-31.398-19.909-36.494-28.33c4.887-2.135,8.305-7.004,8.305-12.677
			c0-6.759-4.85-12.376-11.256-13.585l-0.227-6.101c1.77-0.771,3.008-2.529,3.008-4.582c0-2.181-1.404-4.017-3.354-4.7
			l-0.543-14.639c6.203,1.332,12.814,1.104,19.252-1.066c9.67-3.265,17.029-10.155,21.154-18.647
			c-3.443,2.948-7.479,5.289-12.031,6.827c-19.064,6.426-39.753-3.825-46.187-22.887c-3.188-9.446-2.299-19.259,1.727-27.542
			c-10.966,9.396-15.756,24.828-10.848,39.362c4.07,12.076,13.879,20.598,25.363,23.6l-0.893,14.903
			c-2.095,0.596-3.64,2.503-3.64,4.789c0,2.078,1.27,3.859,3.074,4.613l-0.359,5.97c-6.726,0.94-11.907,6.699-11.907,13.685
			c0,5.92,3.725,10.956,8.954,12.931c-5.15,8.396-15.562,19.722-36.342,28.076c-38.024,15.281-54.816,35.361-60.013,59.422v-2.309
			c0.489-0.355,0.889-0.889,0.889-1.6c0-0.979-0.708-1.869-1.6-2.045v-9.875h0.892c0.575,0,1.064-0.531,1.064-1.064
			c0-0.625-0.489-1.066-1.064-1.066h-1.245c0.623-1.781,1.333-5.162-0.179-8.629c-0.713-1.602-2.134-3.115-3.739-4.445
			c-1.597-1.336-3.334-2.404-4.713-3.203c0.046-0.178,0.088-0.535,0.088-0.803c0.048-0.354,0-0.799-0.173-1.244
			c-0.224-0.443-0.628-0.889-1.07-1.244c-0.444-0.266-0.889-0.623-1.2-0.801l-0.045-0.711c0.088-0.09,0.179-0.178,0.224-0.268
			c0.043-0.09,0.133-0.268,0.133-0.355c0-0.178-0.09-0.357-0.178-0.443c-0.046-0.18-0.134-0.268-0.267-0.268v-0.713
			c0.088,0,0.133-0.088,0.176-0.178c0.045-0.088,0.091-0.18,0.091-0.354c0-0.09-0.046-0.18-0.091-0.268
			c-0.088-0.09-0.13-0.18-0.221-0.268l-0.043-0.711l-0.224-5.158c0-0.088-0.048-0.18-0.133-0.18c-0.045,0-0.091,0.092-0.091,0.18
			l-0.263,5.158v0.711c-0.091,0.088-0.182,0.178-0.227,0.268c-0.045,0.088-0.088,0.178-0.088,0.268c0,0.174,0.043,0.266,0.088,0.354
			c0.045,0.09,0.091,0.178,0.136,0.178v0.713c-0.091,0-0.181,0.088-0.266,0.268c-0.091,0.086-0.134,0.266-0.134,0.443
			c0,0.088,0.043,0.266,0.134,0.355c0,0.09,0.085,0.178,0.175,0.268v0.711c-0.356,0.178-0.801,0.535-1.2,0.801
			c-0.489,0.355-0.843,0.801-1.067,1.244c-0.223,0.445-0.223,0.803-0.223,1.244c0,0.268,0.087,0.625,0.178,0.803
			c-1.466,0.799-3.198,1.867-4.801,3.203c-1.602,1.33-3.023,2.844-3.733,4.445c-1.515,3.467-0.762,6.848-0.182,8.629h-1.024
			c-0.574,0-1.064,0.441-1.064,1.066c0,0.533,0.49,1.064,1.064,1.064h0.847v9.875c-0.889,0.176-1.603,1.066-1.603,2.045
			c0,0.711,0.447,1.244,0.979,1.6v8.006h-4.401v-10.584h-6.092v-2.578h0.532c0.535,0,0.982-0.447,0.982-0.98
			c0-0.621-0.447-1.066-0.982-1.066h-0.532c0.979-2.313,3.556-9.785,0.224-17.344c-1.291-3.023-3.912-5.781-6.896-8.27
			c-2.933-2.402-6.137-4.449-8.756-5.961c0.131-0.357,0.219-0.889,0.264-1.512c0.043-0.623-0.045-1.422-0.402-2.223
			c-0.354-0.801-1.151-1.602-1.953-2.225c-0.801-0.623-1.604-1.156-2.228-1.512l-0.088-1.332c0.179-0.18,0.357-0.268,0.447-0.535
			c0.088-0.178,0.176-0.445,0.176-0.713s-0.088-0.533-0.221-0.799c-0.133-0.178-0.314-0.355-0.489-0.445l-0.046-1.244
			c0.133-0.09,0.221-0.268,0.312-0.357c0.091-0.178,0.136-0.355,0.136-0.623c0-0.176-0.045-0.443-0.181-0.623
			c-0.088-0.176-0.221-0.266-0.357-0.354l-0.042-1.334l-0.447-9.605c0-0.09-0.085-0.18-0.221-0.268
			c-0.133,0-0.221,0.088-0.221,0.268l-0.444,9.605l-0.049,1.334c-0.13,0.088-0.309,0.178-0.396,0.354
			c-0.091,0.18-0.179,0.447-0.179,0.623c0,0.268,0.088,0.445,0.179,0.623c0.087,0.09,0.178,0.268,0.311,0.357l-0.045,1.244
			c-0.224,0.09-0.356,0.268-0.535,0.445c-0.088,0.266-0.178,0.531-0.178,0.799s0.09,0.535,0.178,0.713
			c0.091,0.268,0.227,0.355,0.402,0.535l-0.046,1.332c-0.622,0.355-1.469,0.889-2.222,1.512c-0.847,0.623-1.603,1.424-1.956,2.225
			c-0.356,0.801-0.444,1.6-0.444,2.223c0.088,0.623,0.176,1.154,0.306,1.512c-2.621,1.512-5.865,3.559-8.758,5.961
			c-2.98,2.488-5.604,5.246-6.936,8.27c-3.289,7.559-0.756,15.031,0.267,17.344h-0.535c-0.532,0-1.022,0.445-1.022,1.066
			c0,0.533,0.49,0.98,1.022,0.98h0.227v2.578h-5.783v10.584h-2.536l-0.046-26.416h1.382c0.929,0,1.689-0.801,1.689-1.689
			c0-0.977-0.761-1.689-1.689-1.689h-1.424l-0.133-25.348h0.489c0.798,0,1.509-0.623,1.509-1.424c0-0.889-0.711-1.512-1.509-1.512
			h-0.535l-0.091-20.544h0.626c0.711,0,1.333-0.622,1.333-1.334c0-0.623-0.447-1.157-1.024-1.244v-4.094l0.048-0.177
			c-0.048-0.089-0.048-0.177-0.048-0.268v-1.688h0.535c0.401,0,0.665-0.268,0.665-0.624s-0.264-0.711-0.665-0.711h-0.759
			c0.356-1.068,0.844-3.201-0.085-5.335c-0.444-0.979-1.336-1.959-2.354-2.758c-0.982-0.889-2.093-1.513-2.984-2.046
			c0.046-0.088,0.091-0.267,0.091-0.534c0-0.178,0-0.442-0.091-0.712c-0.178-0.355-0.398-0.621-0.71-0.8
			c-0.267-0.177-0.535-0.354-0.711-0.444l-0.045-0.533c0.045,0,0.13-0.088,0.13-0.179c0.049,0,0.091-0.089,0.091-0.178
			c0-0.088-0.042-0.179-0.091-0.267c-0.042-0.089-0.085-0.178-0.176-0.178v-0.444c0.046,0,0.091-0.088,0.091-0.088
			c0.043-0.091,0.085-0.18,0.085-0.27c0,0-0.042-0.088-0.085-0.178c0-0.087-0.091-0.087-0.136-0.087v-0.445l-0.133-3.291
			c0,0-0.043-0.089-0.085-0.089c-0.048,0-0.091,0.089-0.091,0.089l-0.136,3.291l-0.045,0.445c-0.043,0-0.085,0-0.085,0.087
			c-0.091,0.09-0.091,0.178-0.091,0.178c0,0.09,0,0.179,0.042,0.27c0.049,0,0.049,0.088,0.134,0.088v0.444
			c-0.085,0-0.176,0.089-0.176,0.178c-0.088,0.088-0.088,0.179-0.088,0.267c0,0.089,0,0.178,0.088,0.178
			c0,0.091,0.042,0.179,0.091,0.179v0.533c-0.224,0.09-0.493,0.268-0.759,0.444c-0.312,0.179-0.532,0.444-0.665,0.8
			c-0.091,0.27-0.136,0.534-0.136,0.712c0,0.268,0.045,0.446,0.09,0.534c-0.889,0.533-2.001,1.157-2.98,2.046
			c-0.977,0.799-1.868,1.778-2.315,2.758c-0.974,2.134-0.486,4.267-0.133,5.335h-0.62c-0.399,0-0.668,0.354-0.668,0.711
			s0.269,0.624,0.668,0.624h0.535v6.227c-0.577,0.087-1.024,0.621-1.024,1.244c0,0.712,0.622,1.334,1.333,1.334h0.622l-0.084,20.544
			h-0.538c-0.799,0-1.512,0.623-1.512,1.512c0,0.801,0.713,1.424,1.512,1.424h0.489l-0.133,25.348h-1.421
			c-0.937,0-1.69,0.713-1.69,1.689c0,0.889,0.754,1.689,1.69,1.689h1.421l-0.091,45.805h-4.798v-2.58h0.487
			c0.58,0,1.024-0.445,1.024-0.979c0-0.621-0.444-1.066-1.024-1.066h-0.529c1.019-2.313,3.598-9.783,0.263-17.344
			c-1.291-3.025-3.96-5.781-6.94-8.27c-2.888-2.404-6.089-4.447-8.758-5.961c0.133-0.355,0.269-0.891,0.269-1.422
			c0.042-0.713-0.045-1.512-0.356-2.313c-0.402-0.801-1.158-1.602-1.959-2.223c-0.801-0.623-1.6-1.158-2.223-1.514l-0.09-1.332
			c0.178-0.178,0.312-0.268,0.401-0.535c0.134-0.178,0.224-0.445,0.224-0.709c0-0.27-0.09-0.537-0.269-0.803
			c-0.088-0.178-0.267-0.357-0.441-0.445l-0.091-1.246c0.133-0.088,0.266-0.266,0.312-0.355c0.133-0.178,0.133-0.355,0.133-0.621
			c0-0.178-0.045-0.447-0.179-0.623c-0.09-0.178-0.175-0.266-0.356-0.355l-0.042-1.334l-0.444-9.605c0-0.09-0.091-0.178-0.227-0.268
			c-0.088,0-0.176,0.09-0.176,0.268l-0.444,9.605l-0.091,1.334c-0.133,0.09-0.263,0.178-0.354,0.355
			c-0.091,0.176-0.179,0.445-0.179,0.623c0,0.266,0.043,0.443,0.179,0.621c0.045,0.09,0.181,0.268,0.266,0.355l-0.045,1.246
			c-0.221,0.088-0.356,0.268-0.487,0.445c-0.133,0.266-0.224,0.533-0.224,0.803c0,0.264,0.043,0.531,0.224,0.709
			c0.088,0.268,0.176,0.357,0.357,0.535l-0.046,1.332c-0.625,0.355-1.469,0.891-2.222,1.514c-0.847,0.621-1.603,1.422-1.962,2.223
			c-0.309,0.801-0.396,1.6-0.396,2.313c0,0.531,0.176,1.066,0.267,1.422c-2.624,1.514-5.868,3.557-8.761,5.961
			c-2.981,2.488-5.603,5.244-6.893,8.27c-3.335,7.561-0.802,15.031,0.263,17.344h-0.574c-0.578,0-1.022,0.445-1.022,1.066
			c0,0.533,0.444,0.979,1.022,0.979h0.221v2.58c-4.756-8.227-20.838-9.445-26.227,1.916l-0.071-12.633h0.526
			c0.856,0,1.558-0.717,1.558-1.57c0-0.855-0.701-1.561-1.558-1.561H49.74l-0.126-21.74h0.678c0.755,0,1.383-0.617,1.383-1.383
			c0-0.666-0.466-1.219-1.08-1.357v-6.51h0.602c0.38,0,0.705-0.328,0.705-0.729c0-0.389-0.325-0.705-0.705-0.705h-0.816
			c0.391-1.168,0.894-3.404-0.112-5.68c-0.479-1.057-1.406-2.061-2.488-2.941c-1.031-0.854-2.188-1.584-3.116-2.111
			c0.037-0.15,0.075-0.326,0.088-0.541c0.011-0.264-0.013-0.541-0.139-0.814c-0.126-0.303-0.401-0.58-0.705-0.807
			c-0.274-0.213-0.577-0.389-0.791-0.514l-0.013-0.492c0.051-0.049,0.102-0.113,0.127-0.176c0.049-0.086,0.075-0.174,0.075-0.262
			c0-0.104-0.026-0.215-0.075-0.289c-0.051-0.076-0.102-0.127-0.177-0.178l-0.025-0.426c0.05-0.039,0.088-0.088,0.114-0.152
			c0.037-0.049,0.063-0.125,0.063-0.201c0-0.074-0.025-0.162-0.076-0.225c-0.025-0.051-0.075-0.102-0.126-0.152l-0.024-0.453
			l-0.15-3.441c0-0.039-0.025-0.076-0.076-0.076s-0.076,0.025-0.088,0.076l-0.15,3.441l-0.014,0.453
			c-0.062,0.051-0.111,0.102-0.139,0.152c-0.047,0.063-0.062,0.15-0.062,0.225c0,0.076,0.015,0.152,0.051,0.201
			c0.024,0.064,0.075,0.113,0.099,0.152l-0.011,0.426c-0.063,0.051-0.139,0.102-0.165,0.178c-0.062,0.074-0.087,0.186-0.087,0.289
			c0,0.088,0.025,0.176,0.076,0.262c0.024,0.063,0.088,0.127,0.139,0.176l-0.026,0.492c-0.226,0.125-0.528,0.301-0.791,0.514
			c-0.303,0.227-0.578,0.504-0.691,0.807c-0.139,0.273-0.164,0.551-0.15,0.814c0,0.215,0.049,0.391,0.1,0.541
			c-0.942,0.527-2.098,1.258-3.143,2.111c-1.057,0.881-2.01,1.885-2.475,2.941c-0.993,2.275-0.515,4.512-0.113,5.68h-0.679
			c-0.402,0-0.728,0.316-0.728,0.705c0,0.4,0.325,0.729,0.728,0.729h0.552v6.51c-0.604,0.15-1.056,0.703-1.056,1.357
			c0,0.766,0.643,1.383,1.407,1.383h0.653l-0.124,21.74h-0.529c-0.867,0-1.583,0.705-1.583,1.561c0,0.854,0.716,1.57,1.583,1.57
			h0.529l-0.127,19.344c-6.205-12.844-18.919-21.934-33.867-23.014v-1.516c0-0.244-0.096-0.482-0.271-0.656
			c-0.176-0.176-0.407-0.271-0.656-0.271H0.181L0,618.89v161.111h823.866v-86.156v-2.305h-5.262
			C819.051,690.105,819.354,688.609,819.354,687.031z M45.367,599.517v2.551h-5.154v-2.551c0,0-0.025-0.201,0.163-0.453
			c0.202-0.252,0.114-0.451,0.038-0.703c-0.577-1.609,2.075-1.531,2.389-2.764c0.301,1.232,2.953,1.154,2.389,2.764
			c-0.102,0.252-0.178,0.451,0.023,0.703S45.367,599.517,45.367,599.517z M126.625,539.214v-4.71c0-1.788,1.208-3.291,2.845-3.752
			c1.646,0.461,2.851,1.964,2.851,3.752v4.603l0.002,0.107H126.625z M204.097,605.462h-3.307v-7.334
			c0-2.379,0.696-4.375,1.645-4.977c0.96,0.602,1.662,2.598,1.662,4.977V605.462z M205.347,605.453v-6.918
			c0-2.625,1.774-4.834,4.178-5.51c2.417,0.676,4.187,2.885,4.187,5.51v6.76l0.003,0.158H205.347z M218.589,605.484h-3.306v-7.355
			c0-2.379,0.696-4.375,1.656-4.977c0.951,0.602,1.649,2.598,1.649,4.977V605.484z M433.03,605.484h-3.307v-7.355
			c0-2.379,0.699-4.375,1.65-4.977c0.959,0.602,1.656,2.598,1.656,4.977V605.484z M442.966,605.453h-8.367l0.004-0.158v-6.76
			c0-2.625,1.77-4.834,4.186-5.51c2.404,0.676,4.178,2.885,4.178,5.51V605.453z M447.522,605.462h-3.307v-7.334
			c0-2.379,0.703-4.375,1.662-4.977c0.949,0.602,1.645,2.598,1.645,4.977V605.462z M521.688,539.214h-5.697l0.002-0.107v-4.603
			c0-1.788,1.205-3.291,2.85-3.752c1.637,0.461,2.846,1.964,2.846,3.752V539.214z M608.1,599.517v2.551h-5.154v-2.551
			c0,0-0.049-0.201,0.152-0.453s0.125-0.451,0.023-0.703c-0.564-1.609,2.088-1.531,2.389-2.764c0.314,1.232,2.967,1.154,2.389,2.764
			c-0.076,0.252-0.164,0.451,0.039,0.703C608.125,599.316,608.1,599.517,608.1,599.517z M773.704,682.017h-3.307v-9.178
			c0-2.379,0.699-4.377,1.65-4.977c0.959,0.6,1.656,2.598,1.656,4.977V682.017z M783.465,682.175h-6.34v-0.158h-2.023v-10.17
			c0-2.625,1.77-4.834,4.186-5.51c2.404,0.676,4.178,2.885,4.178,5.51V682.175z M788.196,682.175h-3.307v-9.336
			c0-2.379,0.703-4.377,1.662-4.977c0.949,0.6,1.645,2.598,1.645,4.977V682.175z"/>
		<path opacity="0.3" fill-rule="evenodd" clip-rule="evenodd" fill="#001732" d="M0,602.436v5.408
			c3.17-1.478,5.608-4.388,6.258-8.089c0.804-4.588-1.345-9.004-5.062-11.32c1.589,2.301,2.302,5.205,1.781,8.188
			C2.58,598.903,1.505,600.895,0,602.436z"/>
	</g>
	<path opacity="0.3" fill-rule="evenodd" clip-rule="evenodd" fill="#001732" d="M1024,556.978
		c-0.841-0.352-1.677-0.704-2.539-1.051c-20.99-8.44-31.398-19.909-36.494-28.33c4.887-2.135,8.305-7.004,8.305-12.677
		c0-6.759-4.85-12.376-11.256-13.585l-0.227-6.101c1.77-0.771,3.008-2.529,3.008-4.582c0-2.181-1.404-4.017-3.354-4.7l-0.543-14.639
		c6.203,1.332,12.814,1.104,19.252-1.066c9.67-3.265,17.029-10.155,21.154-18.647c-3.443,2.948-7.479,5.289-12.031,6.827
		c-19.064,6.426-39.753-3.825-46.187-22.887c-3.188-9.446-2.299-19.259,1.727-27.542c-10.966,9.396-15.756,24.828-10.848,39.362
		c4.07,12.076,13.879,20.598,25.362,23.6l-0.893,14.903c-2.095,0.596-3.64,2.503-3.64,4.789c0,2.078,1.27,3.859,3.074,4.613
		l-0.359,5.97c-6.726,0.94-11.907,6.699-11.907,13.685c0,5.92,3.726,10.956,8.954,12.931c-5.149,8.396-15.562,19.722-36.342,28.076
		c-38.024,15.281-54.816,35.361-60.013,59.422v-2.309c0.489-0.355,0.889-0.889,0.889-1.6c0-0.979-0.708-1.869-1.6-2.045v-9.875
		h0.892c0.575,0,1.064-0.531,1.064-1.064c0-0.625-0.489-1.066-1.064-1.066h-1.245c0.623-1.781,1.333-5.162-0.179-8.629
		c-0.713-1.602-2.134-3.115-3.739-4.445c-1.597-1.336-3.334-2.404-4.713-3.203c0.046-0.178,0.088-0.535,0.088-0.803
		c0.048-0.354,0-0.799-0.173-1.244c-0.224-0.443-0.628-0.889-1.07-1.244c-0.444-0.266-0.889-0.623-1.2-0.801l-0.045-0.711
		c0.088-0.09,0.179-0.178,0.224-0.268c0.043-0.09,0.133-0.268,0.133-0.355c0-0.178-0.09-0.357-0.178-0.443
		c-0.046-0.18-0.134-0.268-0.267-0.268v-0.713c0.088,0,0.133-0.088,0.176-0.178c0.045-0.088,0.091-0.18,0.091-0.354
		c0-0.09-0.046-0.18-0.091-0.268c-0.088-0.09-0.13-0.18-0.221-0.268l-0.043-0.711l-0.224-5.158c0-0.088-0.048-0.18-0.133-0.18
		c-0.045,0-0.091,0.092-0.091,0.18l-0.263,5.158v0.711c-0.091,0.088-0.182,0.178-0.227,0.268c-0.045,0.088-0.088,0.178-0.088,0.268
		c0,0.174,0.043,0.266,0.088,0.354c0.045,0.09,0.091,0.178,0.136,0.178v0.713c-0.091,0-0.181,0.088-0.266,0.268
		c-0.091,0.086-0.134,0.266-0.134,0.443c0,0.088,0.043,0.266,0.134,0.355c0,0.09,0.085,0.178,0.175,0.268v0.711
		c-0.356,0.178-0.801,0.535-1.2,0.801c-0.489,0.355-0.843,0.801-1.067,1.244c-0.223,0.445-0.223,0.803-0.223,1.244
		c0,0.268,0.087,0.625,0.178,0.803c-1.466,0.799-3.198,1.867-4.801,3.203c-1.602,1.33-3.023,2.844-3.733,4.445
		c-1.515,3.467-0.762,6.848-0.182,8.629h-1.024c-0.574,0-1.064,0.441-1.064,1.066c0,0.533,0.49,1.064,1.064,1.064h0.847v9.875
		c-0.889,0.176-1.603,1.066-1.603,2.045c0,0.711,0.447,1.244,0.979,1.6v8.006h-4.401v-10.584h-6.092v-2.578h0.532
		c0.535,0,0.982-0.447,0.982-0.98c0-0.621-0.447-1.066-0.982-1.066h-0.532c0.979-2.313,3.556-9.785,0.224-17.344
		c-1.291-3.023-3.912-5.781-6.896-8.27c-2.933-2.402-6.137-4.449-8.756-5.961c0.131-0.357,0.219-0.889,0.264-1.512
		c0.043-0.623-0.045-1.422-0.402-2.223c-0.354-0.801-1.151-1.602-1.953-2.225c-0.801-0.623-1.604-1.156-2.228-1.512l-0.088-1.332
		c0.179-0.18,0.357-0.268,0.447-0.535c0.088-0.178,0.176-0.445,0.176-0.713s-0.088-0.533-0.221-0.799
		c-0.133-0.178-0.314-0.355-0.489-0.445l-0.046-1.244c0.133-0.09,0.221-0.268,0.312-0.357c0.091-0.178,0.136-0.355,0.136-0.623
		c0-0.176-0.045-0.443-0.181-0.623c-0.088-0.176-0.221-0.266-0.357-0.354l-0.042-1.334l-0.447-9.605c0-0.09-0.085-0.18-0.221-0.268
		c-0.133,0-0.221,0.088-0.221,0.268l-0.444,9.605l-0.049,1.334c-0.13,0.088-0.309,0.178-0.396,0.354
		c-0.091,0.18-0.179,0.447-0.179,0.623c0,0.268,0.088,0.445,0.179,0.623c0.087,0.09,0.178,0.268,0.311,0.357l-0.045,1.244
		c-0.224,0.09-0.356,0.268-0.535,0.445c-0.088,0.266-0.178,0.531-0.178,0.799s0.09,0.535,0.178,0.713
		c0.091,0.268,0.227,0.355,0.402,0.535l-0.046,1.332c-0.622,0.355-1.469,0.889-2.222,1.512c-0.847,0.623-1.603,1.424-1.956,2.225
		c-0.356,0.801-0.444,1.6-0.444,2.223c0.088,0.623,0.176,1.154,0.306,1.512c-2.621,1.512-5.865,3.559-8.758,5.961
		c-2.98,2.488-5.604,5.246-6.936,8.27c-3.289,7.559-0.756,15.031,0.267,17.344h-0.535c-0.532,0-1.022,0.445-1.022,1.066
		c0,0.533,0.49,0.98,1.022,0.98h0.227v2.578h-5.783v10.584h-2.536l-0.046-26.416h1.382c0.929,0,1.689-0.801,1.689-1.689
		c0-0.977-0.761-1.689-1.689-1.689h-1.424l-0.133-25.348h0.489c0.798,0,1.509-0.623,1.509-1.424c0-0.889-0.711-1.512-1.509-1.512
		h-0.535l-0.091-20.544h0.626c0.711,0,1.333-0.622,1.333-1.334c0-0.623-0.447-1.157-1.024-1.244v-4.094l0.048-0.177
		c-0.048-0.089-0.048-0.177-0.048-0.268v-1.688h0.535c0.401,0,0.665-0.268,0.665-0.624s-0.264-0.711-0.665-0.711h-0.759
		c0.356-1.068,0.844-3.201-0.085-5.335c-0.444-0.979-1.336-1.959-2.354-2.758c-0.982-0.889-2.093-1.513-2.984-2.046
		c0.046-0.088,0.091-0.267,0.091-0.534c0-0.178,0-0.442-0.091-0.712c-0.178-0.355-0.398-0.621-0.71-0.8
		c-0.267-0.177-0.535-0.354-0.711-0.444l-0.045-0.533c0.045,0,0.13-0.088,0.13-0.179c0.049,0,0.091-0.089,0.091-0.178
		c0-0.088-0.042-0.179-0.091-0.267c-0.042-0.089-0.085-0.178-0.176-0.178v-0.444c0.046,0,0.091-0.088,0.091-0.088
		c0.043-0.091,0.085-0.18,0.085-0.27c0,0-0.042-0.088-0.085-0.178c0-0.087-0.091-0.087-0.136-0.087v-0.445l-0.133-3.291
		c0,0-0.043-0.089-0.085-0.089c-0.048,0-0.091,0.089-0.091,0.089l-0.136,3.291l-0.045,0.445c-0.043,0-0.085,0-0.085,0.087
		c-0.091,0.09-0.091,0.178-0.091,0.178c0,0.09,0,0.179,0.042,0.27c0.049,0,0.049,0.088,0.134,0.088v0.444
		c-0.085,0-0.176,0.089-0.176,0.178c-0.088,0.088-0.088,0.179-0.088,0.267c0,0.089,0,0.178,0.088,0.178
		c0,0.091,0.042,0.179,0.091,0.179v0.533c-0.224,0.09-0.493,0.268-0.759,0.444c-0.312,0.179-0.532,0.444-0.665,0.8
		c-0.091,0.27-0.136,0.534-0.136,0.712c0,0.268,0.045,0.446,0.09,0.534c-0.889,0.533-2.001,1.157-2.98,2.046
		c-0.977,0.799-1.868,1.778-2.315,2.758c-0.974,2.134-0.486,4.267-0.133,5.335h-0.62c-0.399,0-0.668,0.354-0.668,0.711
		s0.269,0.624,0.668,0.624h0.535v6.227c-0.577,0.087-1.024,0.621-1.024,1.244c0,0.712,0.622,1.334,1.333,1.334h0.622l-0.084,20.544
		h-0.538c-0.799,0-1.512,0.623-1.512,1.512c0,0.801,0.713,1.424,1.512,1.424h0.489l-0.133,25.348h-1.421
		c-0.937,0-1.69,0.713-1.69,1.689c0,0.889,0.754,1.689,1.69,1.689h1.421l-0.091,45.805h-4.798v-2.58h0.487
		c0.58,0,1.024-0.445,1.024-0.979c0-0.621-0.444-1.066-1.024-1.066h-0.529c1.019-2.313,3.598-9.783,0.263-17.344
		c-1.291-3.025-3.96-5.781-6.94-8.27c-2.888-2.404-6.089-4.447-8.758-5.961c0.133-0.355,0.269-0.891,0.269-1.422
		c0.042-0.713-0.045-1.512-0.356-2.313c-0.402-0.801-1.158-1.602-1.959-2.223c-0.801-0.623-1.6-1.158-2.223-1.514l-0.09-1.332
		c0.178-0.178,0.312-0.268,0.401-0.535c0.134-0.178,0.224-0.445,0.224-0.709c0-0.27-0.09-0.537-0.269-0.803
		c-0.088-0.178-0.267-0.357-0.441-0.445l-0.091-1.246c0.133-0.088,0.266-0.266,0.312-0.355c0.133-0.178,0.133-0.355,0.133-0.621
		c0-0.178-0.045-0.447-0.179-0.623c-0.09-0.178-0.175-0.266-0.356-0.355l-0.042-1.334l-0.444-9.605c0-0.09-0.091-0.178-0.227-0.268
		c-0.088,0-0.176,0.09-0.176,0.268l-0.444,9.605l-0.091,1.334c-0.133,0.09-0.263,0.178-0.354,0.355
		c-0.091,0.176-0.179,0.445-0.179,0.623c0,0.266,0.043,0.443,0.179,0.621c0.045,0.09,0.181,0.268,0.266,0.355l-0.045,1.246
		c-0.221,0.088-0.356,0.268-0.487,0.445c-0.133,0.266-0.224,0.533-0.224,0.803c0,0.264,0.043,0.531,0.224,0.709
		c0.088,0.268,0.176,0.357,0.357,0.535l-0.046,1.332c-0.625,0.355-1.469,0.891-2.222,1.514c-0.847,0.621-1.603,1.422-1.962,2.223
		c-0.309,0.801-0.396,1.6-0.396,2.313c0,0.531,0.176,1.066,0.267,1.422c-2.624,1.514-5.868,3.557-8.761,5.961
		c-2.981,2.488-5.603,5.244-6.893,8.27c-3.335,7.561-0.802,15.031,0.263,17.344h-0.574c-0.578,0-1.022,0.445-1.022,1.066
		c0,0.533,0.444,0.979,1.022,0.979h0.221v2.58c-4.756-8.227-20.838-9.445-26.227,1.916l-0.071-12.633h0.526
		c0.856,0,1.558-0.717,1.558-1.57c0-0.855-0.701-1.561-1.558-1.561h-0.552l-0.126-21.74h0.678c0.755,0,1.383-0.617,1.383-1.383
		c0-0.666-0.466-1.219-1.08-1.357v-6.51h0.602c0.38,0,0.705-0.328,0.705-0.729c0-0.389-0.325-0.705-0.705-0.705h-0.816
		c0.391-1.168,0.894-3.404-0.112-5.68c-0.479-1.057-1.406-2.061-2.488-2.941c-1.031-0.854-2.188-1.584-3.116-2.111
		c0.037-0.15,0.075-0.326,0.088-0.541c0.011-0.264-0.013-0.541-0.139-0.814c-0.126-0.303-0.401-0.58-0.705-0.807
		c-0.274-0.213-0.577-0.389-0.791-0.514l-0.013-0.492c0.051-0.049,0.102-0.113,0.127-0.176c0.049-0.086,0.075-0.174,0.075-0.262
		c0-0.104-0.026-0.215-0.075-0.289c-0.051-0.076-0.102-0.127-0.177-0.178l-0.025-0.426c0.05-0.039,0.088-0.088,0.114-0.152
		c0.037-0.049,0.063-0.125,0.063-0.201c0-0.074-0.025-0.162-0.076-0.225c-0.025-0.051-0.075-0.102-0.126-0.152l-0.024-0.453
		l-0.15-3.441c0-0.039-0.025-0.076-0.076-0.076s-0.076,0.025-0.088,0.076l-0.15,3.441l-0.014,0.453
		c-0.062,0.051-0.111,0.102-0.139,0.152c-0.047,0.063-0.062,0.15-0.062,0.225c0,0.076,0.015,0.152,0.051,0.201
		c0.024,0.064,0.075,0.113,0.099,0.152l-0.011,0.426c-0.063,0.051-0.139,0.102-0.165,0.178c-0.062,0.074-0.087,0.186-0.087,0.289
		c0,0.088,0.025,0.176,0.076,0.262c0.024,0.063,0.088,0.127,0.139,0.176l-0.026,0.492c-0.226,0.125-0.528,0.301-0.791,0.514
		c-0.303,0.227-0.578,0.504-0.691,0.807c-0.139,0.273-0.164,0.551-0.15,0.814c0,0.215,0.049,0.391,0.1,0.541
		c-0.942,0.527-2.098,1.258-3.143,2.111c-1.057,0.881-2.01,1.885-2.475,2.941c-0.993,2.275-0.515,4.512-0.113,5.68h-0.679
		c-0.402,0-0.728,0.316-0.728,0.705c0,0.4,0.325,0.729,0.728,0.729h0.552v6.51c-0.604,0.15-1.056,0.703-1.056,1.357
		c0,0.766,0.643,1.383,1.407,1.383h0.653l-0.124,21.74h-0.529c-0.867,0-1.583,0.705-1.583,1.561c0,0.854,0.716,1.57,1.583,1.57
		h0.529l-0.127,19.344c-6.205-12.844-18.919-21.934-33.867-23.014v-1.516c0-0.244-0.096-0.482-0.271-0.656
		c-0.176-0.176-0.407-0.271-0.656-0.271h-0.762l-0.598-15.557c3.377-1.408,5.996-4.428,6.675-8.293
		c0.804-4.588-1.345-9.004-5.062-11.32c1.589,2.301,2.302,5.205,1.781,8.188c-1.051,6.02-6.803,10.049-12.814,8.994
		c-1.441-0.252-2.76-0.771-3.935-1.496c1.633,2.361,4.166,4.092,7.218,4.627c1.894,0.334,3.736,0.113,5.438-0.467l-0.611,15.324
		h-0.744c-0.523,0-0.954,0.43-0.954,0.955v1.457c-16.121,0.904-29.722,11.121-35.535,25.377c-0.812-0.93-1.765-1.814-2.771-2.656
		c-1.952-1.623-4.114-3.006-5.918-4.027c0.089-0.24,0.181-0.602,0.181-0.961c0.028-0.48-0.03-1.021-0.24-1.563
		c-0.272-0.541-0.782-1.082-1.323-1.502c-0.541-0.422-1.081-0.781-1.503-1.023l-0.061-0.9c0.12-0.119,0.21-0.18,0.272-0.361
		c0.09-0.119,0.15-0.301,0.15-0.479c0-0.182-0.061-0.363-0.183-0.543c-0.058-0.119-0.18-0.24-0.298-0.301l-0.062-0.842
		c0.09-0.059,0.18-0.18,0.212-0.24c0.09-0.121,0.09-0.24,0.09-0.42c0-0.121-0.032-0.303-0.122-0.42
		c-0.061-0.121-0.118-0.18-0.241-0.242l-0.028-0.9l-0.3-6.49c0-0.061-0.062-0.119-0.153-0.182c-0.059,0-0.118,0.063-0.118,0.182
		l-0.301,6.49l-0.062,0.9c-0.089,0.063-0.177,0.121-0.238,0.242c-0.062,0.117-0.121,0.299-0.121,0.42c0,0.18,0.029,0.299,0.121,0.42
		c0.03,0.061,0.122,0.182,0.18,0.24l-0.03,0.842c-0.149,0.061-0.241,0.182-0.33,0.301c-0.089,0.18-0.15,0.361-0.15,0.543
		c0,0.178,0.029,0.359,0.15,0.479c0.06,0.182,0.119,0.242,0.242,0.361l-0.031,0.9c-0.422,0.242-0.992,0.602-1.501,1.023
		c-0.573,0.42-1.084,0.961-1.326,1.502c-0.209,0.541-0.269,1.082-0.269,1.563c0,0.359,0.119,0.721,0.181,0.961
		c-1.772,1.021-3.965,2.404-5.919,4.027c-2.016,1.684-3.787,3.545-4.659,5.59c-0.556,1.258-0.867,2.512-1.016,3.713
		c-5.849-2.273-10.796-5.154-14.755-8.523c0.164-0.322,0.283-0.668,0.283-1.059c0-0.955-0.583-1.777-1.415-2.141l-0.592-9.242
		h-0.693l-0.595,9.242c-0.832,0.363-1.406,1.186-1.406,2.141c0,0.391,0.11,0.736,0.28,1.059c-4.323,3.658-9.874,6.807-16.387,9.146
		c-10.007,3.582-16.685,9.996-16.685,17.324c0,2.098,0.552,4.129,1.565,6.029h-3.912v-16.871h0.232c0.665,0,1.206-0.535,1.206-1.203
		v-0.684c0-0.658-0.541-1.203-1.206-1.203h-1.577c0.065-0.447,0.11-0.889,0.11-1.363c0-3.217-1.704-6.043-4.257-7.617
		c-1.588-0.975-2.941-2.242-4.008-3.736c0.203-0.189,0.322-0.461,0.322-0.756c0-0.418-0.249-0.787-0.617-0.941l-0.264-4.07h-0.303
		l-0.26,4.07c-0.368,0.154-0.62,0.523-0.62,0.941c0,0.295,0.124,0.566,0.325,0.756c-1.078,1.488-2.435,2.764-4.002,3.736
		c-2.557,1.574-4.264,4.4-4.264,7.617c0,0.475,0.043,0.916,0.119,1.363h-1.633c-0.663,0-1.198,0.545-1.198,1.203v0.684
		c0,0.668,0.535,1.203,1.198,1.203h0.274v17.691c-1.354-4.682-4.88-8.43-9.44-10.086c0.006-0.076,0.022-0.148,0.022-0.225
		c0-2.252-1.436-4.145-3.439-4.873l-0.733-2.221c0.145-0.203,0.244-0.436,0.244-0.699c0-0.51-0.314-0.939-0.747-1.141l-0.456-7.01
		c0-0.031-0.037-0.055-0.076-0.055c-0.025,0-0.06,0.023-0.06,0.055l-0.456,7.01c-0.43,0.201-0.741,0.631-0.741,1.141
		c0,0.264,0.096,0.494,0.231,0.693l-0.728,2.227c-2.001,0.729-3.434,2.627-3.434,4.873c0,0.076,0.018,0.148,0.018,0.225
		c-5.852,2.125-10.061,7.686-10.061,14.279c0,1.578,0.303,3.074,0.75,4.51h-5.262v2.305H480.1v86.156H1024V556.978z
		 M519.617,682.175h-3.307v-9.336c0-2.379,0.696-4.377,1.645-4.977c0.96,0.6,1.662,2.598,1.662,4.977V682.175z M529.405,682.017
		h-2.024v0.158h-6.34v-10.328c0-2.625,1.774-4.834,4.178-5.51c2.417,0.676,4.187,2.885,4.187,5.51V682.017z M534.109,682.017h-3.306
		v-9.178c0-2.379,0.696-4.377,1.656-4.977c0.951,0.6,1.649,2.598,1.649,4.977V682.017z M701.56,599.517v2.551h-5.154v-2.551
		c0,0-0.025-0.201,0.163-0.453c0.202-0.252,0.114-0.451,0.038-0.703c-0.577-1.609,2.075-1.531,2.389-2.764
		c0.301,1.232,2.953,1.154,2.389,2.764c-0.102,0.252-0.178,0.451,0.023,0.703S701.56,599.517,701.56,599.517z M782.819,539.214
		v-4.71c0-1.788,1.208-3.291,2.845-3.752c1.646,0.461,2.851,1.964,2.851,3.752v4.603l0.002,0.107H782.819z M860.291,605.462h-3.307
		v-7.334c0-2.379,0.696-4.375,1.645-4.977c0.96,0.602,1.662,2.598,1.662,4.977V605.462z M861.541,605.453v-6.918
		c0-2.625,1.774-4.834,4.178-5.51c2.417,0.676,4.187,2.885,4.187,5.51v6.76l0.003,0.158H861.541z M874.783,605.484h-3.306v-7.355
		c0-2.379,0.696-4.375,1.656-4.977c0.951,0.602,1.649,2.598,1.649,4.977V605.484z"/>
	<path fill-rule="evenodd" clip-rule="evenodd" fill="#001732" d="M1018.613,693.885c0.458-1.47,0.768-3.001,0.768-4.619
		c0-6.752-4.31-12.446-10.303-14.623c0-0.076,0.019-0.151,0.019-0.229c0-2.3-1.468-4.244-3.516-4.989l-0.746-2.28
		c0.14-0.204,0.237-0.44,0.237-0.709c0-0.523-0.32-0.964-0.76-1.17l-0.467-7.177c0-0.033-0.035-0.057-0.062-0.057
		c-0.039,0-0.078,0.023-0.078,0.057l-0.466,7.177c-0.444,0.206-0.767,0.646-0.767,1.17c0,0.269,0.103,0.507,0.251,0.715l-0.75,2.274
		c-2.052,0.745-3.522,2.684-3.522,4.989c0,0.078,0.016,0.153,0.021,0.229c-4.67,1.696-8.28,5.536-9.666,10.33v-18.118h0.28
		c0.68,0,1.228-0.548,1.228-1.232v-0.699c0-0.675-0.548-1.23-1.228-1.23h-1.672c0.077-0.458,0.122-0.91,0.122-1.397
		c0-3.293-1.749-6.188-4.366-7.8c-1.604-0.997-2.995-2.303-4.099-3.826c0.205-0.194,0.334-0.471,0.334-0.773
		c0-0.429-0.258-0.807-0.637-0.966l-0.266-4.167h-0.311l-0.269,4.167c-0.377,0.159-0.632,0.537-0.632,0.966
		c0,0.303,0.121,0.579,0.329,0.773c-1.092,1.529-2.478,2.827-4.104,3.826c-2.614,1.611-4.359,4.507-4.359,7.8
		c0,0.487,0.047,0.939,0.112,1.397h-1.613c-0.683,0-1.236,0.556-1.236,1.23v0.699c0,0.685,0.554,1.232,1.236,1.232h0.237v17.276
		h-4.006c1.038-1.945,1.602-4.025,1.602-6.174c0-7.503-6.838-14.072-17.084-17.74c-6.671-2.396-12.354-5.62-16.78-9.366
		c0.173-0.33,0.285-0.685,0.285-1.083c0-0.979-0.588-1.82-1.44-2.192l-0.607-9.465h-0.71l-0.605,9.465
		c-0.853,0.372-1.451,1.213-1.451,2.192c0,0.398,0.122,0.753,0.29,1.083c-4.054,3.449-9.119,6.4-15.108,8.729
		c-0.152-1.23-0.472-2.515-1.039-3.804c-0.895-2.094-2.709-4-4.773-5.725c-2-1.66-4.245-3.078-6.06-4.123
		c0.062-0.246,0.184-0.615,0.184-0.983c0-0.493-0.06-1.048-0.273-1.6c-0.248-0.555-0.772-1.109-1.358-1.539
		c-0.521-0.433-1.106-0.801-1.538-1.048l-0.032-0.922c0.126-0.122,0.188-0.185,0.249-0.37c0.124-0.121,0.153-0.309,0.153-0.491
		c0-0.185-0.063-0.371-0.153-0.557c-0.091-0.121-0.185-0.245-0.339-0.307l-0.03-0.862c0.059-0.06,0.152-0.183,0.185-0.246
		c0.094-0.124,0.124-0.245,0.124-0.431c0-0.123-0.063-0.309-0.124-0.428c-0.064-0.126-0.154-0.186-0.244-0.25l-0.064-0.922
		l-0.307-6.646c0-0.121-0.061-0.185-0.12-0.185c-0.095,0.063-0.158,0.124-0.158,0.185l-0.307,6.646l-0.03,0.922
		c-0.125,0.064-0.184,0.124-0.245,0.25c-0.093,0.119-0.127,0.305-0.127,0.428c0,0.186,0,0.307,0.093,0.431
		c0.034,0.063,0.125,0.187,0.218,0.246l-0.063,0.862c-0.12,0.062-0.247,0.186-0.305,0.307c-0.126,0.186-0.188,0.372-0.188,0.557
		c0,0.183,0.063,0.37,0.154,0.491c0.064,0.186,0.155,0.248,0.28,0.37l-0.062,0.922c-0.433,0.247-0.987,0.615-1.54,1.048
		c-0.555,0.43-1.076,0.984-1.354,1.539c-0.216,0.552-0.276,1.106-0.246,1.6c0,0.368,0.094,0.737,0.185,0.983
		c-1.847,1.045-4.061,2.463-6.061,4.123c-1.03,0.863-2.006,1.77-2.837,2.721c-5.954-14.599-19.881-25.061-36.39-25.986v-1.491
		c0-0.539-0.441-0.979-0.978-0.979h-0.762l-0.626-15.691c1.741,0.594,3.631,0.819,5.567,0.478c3.127-0.549,5.722-2.319,7.394-4.739
		c-1.204,0.743-2.555,1.275-4.031,1.533c-6.156,1.079-12.047-3.047-13.121-9.211c-0.533-3.053,0.197-6.027,1.822-8.384
		c-3.805,2.372-6.006,6.894-5.182,11.592c0.694,3.958,3.377,7.051,6.834,8.493l-0.611,15.93h-0.78c-0.253,0-0.492,0.099-0.672,0.277
		c-0.181,0.179-0.278,0.423-0.278,0.672v1.554c-15.306,1.106-28.326,10.414-34.681,23.566l-0.131-19.809h0.543
		c0.888,0,1.621-0.735,1.621-1.607c0-0.877-0.733-1.599-1.621-1.599H807.5l-0.126-22.263h0.669c0.783,0,1.441-0.634,1.441-1.416
		c0-0.67-0.464-1.236-1.082-1.392v-6.665h0.566c0.412,0,0.744-0.337,0.744-0.745c0-0.399-0.332-0.724-0.744-0.724h-0.696
		c0.412-1.195,0.902-3.485-0.115-5.816c-0.477-1.081-1.453-2.109-2.535-3.012c-1.069-0.874-2.252-1.621-3.218-2.162
		c0.052-0.153,0.103-0.334,0.103-0.554c0.014-0.27-0.012-0.555-0.154-0.834c-0.116-0.311-0.398-0.594-0.708-0.825
		c-0.269-0.219-0.578-0.399-0.81-0.527l-0.027-0.503c0.053-0.051,0.116-0.116,0.143-0.181c0.053-0.089,0.078-0.177,0.078-0.268
		c0-0.106-0.025-0.22-0.091-0.297c-0.025-0.078-0.103-0.13-0.167-0.181l-0.013-0.437c0.024-0.041,0.077-0.091,0.103-0.157
		c0.036-0.049,0.052-0.128,0.052-0.204c0-0.077-0.016-0.167-0.063-0.23c-0.028-0.053-0.078-0.104-0.143-0.157l-0.014-0.464
		l-0.154-3.524c-0.012-0.051-0.037-0.076-0.09-0.076c-0.052,0-0.078,0.037-0.078,0.076l-0.153,3.524l-0.024,0.464
		c-0.053,0.054-0.104,0.104-0.13,0.157c-0.053,0.063-0.078,0.153-0.078,0.23c0,0.076,0.025,0.155,0.063,0.204
		c0.028,0.066,0.066,0.116,0.118,0.157l-0.026,0.437c-0.077,0.051-0.13,0.103-0.182,0.181c-0.05,0.077-0.076,0.19-0.076,0.297
		c0,0.091,0.026,0.179,0.076,0.268c0.026,0.064,0.078,0.13,0.131,0.181l-0.013,0.503c-0.22,0.128-0.53,0.309-0.811,0.527
		c-0.312,0.231-0.593,0.515-0.722,0.825c-0.13,0.279-0.153,0.564-0.142,0.834c0.012,0.22,0.052,0.4,0.09,0.554
		c-0.952,0.541-2.137,1.288-3.192,2.162c-1.108,0.902-2.058,1.931-2.548,3.012c-1.03,2.331-0.515,4.621-0.114,5.816h-0.836
		c-0.39,0-0.722,0.324-0.722,0.724c0,0.408,0.332,0.745,0.722,0.745h0.616v6.665c-0.63,0.144-1.106,0.71-1.106,1.392
		c0,0.782,0.643,1.416,1.417,1.416h0.693l-0.13,22.263h-0.563c-0.879,0-1.597,0.722-1.597,1.599c0,0.872,0.718,1.607,1.597,1.607
		h0.537l-0.071,12.937c-5.519-11.635-21.987-10.387-26.857-1.962v-2.642h0.227c0.592,0,1.045-0.456,1.045-1.003
		c0-0.637-0.453-1.093-1.045-1.093h-0.588c1.09-2.367,3.684-10.018,0.268-17.76c-1.32-3.098-4.005-5.921-7.059-8.469
		c-2.962-2.463-6.284-4.554-8.97-6.104c0.091-0.364,0.272-0.912,0.272-1.455c0-0.731-0.091-1.549-0.407-2.368
		c-0.368-0.82-1.143-1.64-2.008-2.276c-0.771-0.638-1.636-1.186-2.276-1.55l-0.045-1.363c0.186-0.184,0.274-0.275,0.365-0.549
		c0.184-0.183,0.228-0.456,0.228-0.728c0-0.275-0.092-0.548-0.228-0.821c-0.134-0.181-0.274-0.365-0.5-0.456l-0.047-1.275
		c0.089-0.091,0.227-0.271,0.272-0.364c0.141-0.183,0.184-0.363,0.184-0.637c0-0.181-0.089-0.458-0.184-0.637
		c-0.091-0.183-0.226-0.273-0.361-0.364l-0.093-1.365l-0.456-9.837c0-0.183-0.089-0.275-0.18-0.275
		c-0.138,0.093-0.231,0.184-0.231,0.275l-0.455,9.837l-0.044,1.365c-0.186,0.091-0.271,0.182-0.363,0.364
		c-0.138,0.179-0.184,0.456-0.184,0.637c0,0.273,0,0.454,0.136,0.637c0.048,0.093,0.184,0.273,0.32,0.364l-0.095,1.275
		c-0.178,0.091-0.361,0.275-0.452,0.456c-0.182,0.273-0.274,0.546-0.274,0.821c0,0.271,0.093,0.545,0.229,0.728
		c0.092,0.273,0.229,0.365,0.412,0.549l-0.092,1.363c-0.638,0.364-1.457,0.912-2.276,1.55c-0.819,0.637-1.594,1.456-2.006,2.276
		c-0.32,0.819-0.408,1.637-0.366,2.368c0,0.543,0.14,1.091,0.276,1.455c-2.734,1.551-6.013,3.642-8.968,6.104
		c-3.053,2.548-5.787,5.371-7.109,8.469c-3.414,7.742-0.773,15.393,0.271,17.76h-0.543c-0.594,0-1.05,0.456-1.05,1.093
		c0,0.547,0.456,1.003,1.05,1.003h0.499v2.642h-4.913l-0.094-46.907h1.456c0.959,0,1.73-0.819,1.73-1.729
		c0-0.999-0.771-1.729-1.73-1.729h-1.456l-0.136-25.957h0.502c0.818,0,1.548-0.639,1.548-1.459c0-0.91-0.729-1.547-1.548-1.547
		h-0.552l-0.086-21.039h0.638c0.729,0,1.364-0.637,1.364-1.366c0-0.638-0.458-1.185-1.049-1.274v-6.376h0.549
		c0.408,0,0.684-0.274,0.684-0.639c0-0.365-0.275-0.728-0.684-0.728h-0.636c0.361-1.094,0.861-3.278-0.137-5.463
		c-0.458-1.003-1.369-2.006-2.37-2.824c-1.004-0.91-2.142-1.549-3.052-2.095c0.046-0.091,0.092-0.273,0.092-0.548
		c0-0.182-0.046-0.452-0.14-0.729c-0.137-0.364-0.362-0.636-0.68-0.819c-0.272-0.181-0.549-0.362-0.778-0.455v-0.546
		c0.05,0,0.094-0.09,0.094-0.183c0.09,0,0.09-0.091,0.09-0.183c0-0.09,0-0.183-0.09-0.272c0-0.091-0.094-0.182-0.18-0.182v-0.455
		c0.086,0,0.086-0.09,0.136-0.09c0.044-0.093,0.044-0.184,0.044-0.276c0,0,0-0.09-0.094-0.183c0-0.089-0.042-0.089-0.086-0.089
		l-0.046-0.456l-0.141-3.37c0,0-0.044-0.091-0.092-0.091c-0.044,0-0.088,0.091-0.088,0.091l-0.136,3.37v0.456
		c-0.047,0-0.138,0-0.138,0.089c-0.045,0.093-0.089,0.183-0.089,0.183c0,0.092,0.044,0.183,0.089,0.276c0,0,0.045,0.09,0.091,0.09
		v0.455c-0.091,0-0.136,0.091-0.18,0.182c-0.05,0.09-0.092,0.183-0.092,0.272c0,0.092,0.042,0.183,0.092,0.183
		c0,0.093,0.089,0.183,0.134,0.183l-0.045,0.546c-0.181,0.093-0.456,0.274-0.729,0.455c-0.32,0.184-0.547,0.455-0.729,0.819
		c-0.092,0.276-0.092,0.547-0.092,0.729c0,0.274,0.046,0.457,0.092,0.548c-0.912,0.546-2.05,1.185-3.056,2.095
		c-1.043,0.818-1.957,1.821-2.411,2.824c-0.951,2.185-0.45,4.369-0.087,5.463h-0.776c-0.412,0-0.683,0.363-0.683,0.728
		c0,0.365,0.271,0.639,0.683,0.639h0.548v1.729c0,0.093,0,0.183-0.05,0.274l0.05,0.181v4.192c-0.591,0.089-1.049,0.636-1.049,1.274
		c0,0.729,0.638,1.366,1.364,1.366h0.642l-0.093,21.039h-0.549c-0.817,0-1.546,0.637-1.546,1.547c0,0.82,0.729,1.459,1.546,1.459
		h0.501l-0.136,25.957h-1.459c-0.949,0-1.729,0.73-1.729,1.729c0,0.91,0.78,1.729,1.729,1.729h1.417l-0.049,27.052h-2.596v-10.839
		h-5.922v-2.64h0.231c0.545,0,1.047-0.458,1.047-1.005c0-0.635-0.502-1.091-1.047-1.091h-0.547
		c1.045-2.368,3.639-10.021,0.271-17.762c-1.361-3.096-4.049-5.919-7.102-8.468c-2.962-2.459-6.284-4.557-8.969-6.104
		c0.134-0.366,0.225-0.91,0.314-1.549c0-0.637-0.09-1.455-0.456-2.276c-0.362-0.82-1.136-1.64-2.002-2.276
		c-0.772-0.639-1.639-1.186-2.276-1.549l-0.046-1.364c0.18-0.185,0.318-0.273,0.412-0.549c0.09-0.181,0.182-0.456,0.182-0.729
		c0-0.275-0.092-0.547-0.182-0.818c-0.184-0.183-0.319-0.363-0.548-0.456l-0.046-1.273c0.136-0.093,0.228-0.275,0.317-0.368
		c0.093-0.181,0.183-0.363,0.183-0.637c0-0.181-0.09-0.454-0.183-0.639c-0.09-0.179-0.271-0.271-0.406-0.361l-0.05-1.366
		l-0.454-9.836c0-0.183-0.09-0.273-0.226-0.273c-0.14,0.091-0.226,0.182-0.226,0.273l-0.458,9.836l-0.044,1.366
		c-0.141,0.09-0.276,0.183-0.367,0.361c-0.138,0.185-0.184,0.458-0.184,0.639c0,0.273,0.046,0.456,0.139,0.637
		c0.094,0.093,0.184,0.275,0.319,0.368l-0.048,1.273c-0.178,0.093-0.364,0.273-0.499,0.456c-0.137,0.271-0.227,0.543-0.227,0.818
		c0,0.272,0.09,0.548,0.18,0.729c0.092,0.275,0.274,0.364,0.458,0.549l-0.09,1.364c-0.639,0.363-1.462,0.91-2.282,1.549
		c-0.82,0.637-1.638,1.456-2,2.276c-0.366,0.821-0.456,1.64-0.412,2.276c0.046,0.639,0.136,1.183,0.271,1.549
		c-2.683,1.547-5.963,3.645-8.967,6.104c-3.055,2.549-5.738,5.372-7.061,8.468c-3.411,7.741-0.773,15.394,0.228,17.762h-0.543
		c-0.549,0-1.007,0.456-1.007,1.091c0,0.547,0.458,1.005,1.007,1.005h0.543v2.64h-6.237v10.839h-4.507v-8.198
		c0.545-0.364,1.003-0.91,1.003-1.638c0-1.003-0.73-1.915-1.641-2.094v-10.113h0.866c0.588,0,1.09-0.545,1.09-1.089
		c0-0.641-0.502-1.093-1.09-1.093h-1.048c0.594-1.824,1.364-5.286-0.186-8.836c-0.729-1.642-2.186-3.19-3.824-4.553
		c-1.641-1.368-3.415-2.463-4.917-3.28c0.094-0.182,0.183-0.549,0.183-0.822c0-0.452,0-0.817-0.229-1.273
		c-0.229-0.454-0.592-0.91-1.092-1.273c-0.41-0.273-0.864-0.64-1.23-0.82v-0.729c0.093-0.093,0.18-0.182,0.18-0.273
		c0.093-0.093,0.137-0.275,0.137-0.364c0-0.183-0.044-0.367-0.137-0.454c-0.087-0.185-0.18-0.274-0.271-0.274v-0.729
		c0.046,0,0.092-0.091,0.138-0.183c0.047-0.089,0.091-0.184,0.091-0.362c0-0.092-0.044-0.183-0.091-0.273
		c-0.046-0.092-0.138-0.185-0.231-0.274v-0.728l-0.269-5.282c0-0.09-0.048-0.185-0.094-0.185c-0.086,0-0.137,0.095-0.137,0.185
		l-0.228,5.282l-0.044,0.728c-0.094,0.09-0.136,0.183-0.226,0.274c-0.046,0.091-0.094,0.182-0.094,0.273
		c0,0.179,0.048,0.273,0.094,0.362c0.044,0.092,0.09,0.183,0.18,0.183v0.729c-0.136,0-0.226,0.09-0.273,0.274
		c-0.091,0.087-0.183,0.271-0.183,0.454c0,0.089,0.092,0.271,0.136,0.364c0.047,0.092,0.141,0.181,0.23,0.273l-0.046,0.729
		c-0.32,0.181-0.774,0.547-1.23,0.82c-0.451,0.363-0.865,0.819-1.096,1.273c-0.176,0.456-0.226,0.912-0.176,1.273
		c0,0.273,0.041,0.641,0.09,0.822c-1.412,0.817-3.192,1.912-4.826,3.28c-1.645,1.362-3.101,2.911-3.83,4.553
		c-1.548,3.55-0.82,7.012-0.183,8.836h-1.275c-0.588,0-1.091,0.452-1.091,1.093c0,0.544,0.503,1.089,1.091,1.089h0.914v10.113
		c-0.914,0.179-1.639,1.091-1.639,2.094c0,0.728,0.409,1.273,0.91,1.638v8.198h-0.068v-0.352
		c-3.903-27.081-20.639-49.537-62.432-66.332c-21.495-8.643-32.153-20.388-37.371-29.011c5.003-2.187,8.503-7.172,8.503-12.981
		c0-6.922-4.965-12.674-11.525-13.912l-0.232-6.248c1.812-0.789,3.081-2.59,3.081-4.692c0-2.233-1.439-4.113-3.436-4.813
		l-0.555-14.99c6.352,1.364,13.122,1.131,19.714-1.092c9.902-3.344,17.438-10.399,21.663-19.096
		c-3.526,3.019-7.658,5.417-12.321,6.991c-19.521,6.58-40.708-3.917-47.297-23.437c-3.264-9.674-2.354-19.722,1.769-28.205
		c-11.23,9.622-16.135,25.425-11.109,40.309c4.168,12.367,14.213,21.093,25.973,24.167l-0.914,15.262
		c-2.146,0.61-3.728,2.563-3.728,4.904c0,2.128,1.3,3.952,3.148,4.724l-0.368,6.113c-6.887,0.963-12.193,6.86-12.193,14.014
		c0,6.062,3.815,11.219,9.169,13.241c-5.273,8.599-15.936,20.196-37.215,28.751c-38.938,15.648-56.134,36.21-61.455,60.85v-2.364
		c0.5-0.364,0.91-0.91,0.91-1.638c0-1.003-0.726-1.915-1.639-2.094v-10.113h0.913c0.589,0,1.09-0.545,1.09-1.089
		c0-0.641-0.5-1.093-1.09-1.093h-1.275c0.638-1.824,1.365-5.286-0.183-8.836c-0.73-1.642-2.185-3.19-3.829-4.553
		c-1.635-1.368-3.414-2.463-4.826-3.28c0.047-0.182,0.09-0.549,0.09-0.822c0.049-0.361,0-0.817-0.177-1.273
		c-0.229-0.454-0.643-0.91-1.096-1.273c-0.455-0.273-0.91-0.64-1.229-0.82l-0.046-0.729c0.09-0.093,0.183-0.182,0.229-0.273
		c0.044-0.093,0.136-0.275,0.136-0.364c0-0.183-0.092-0.367-0.182-0.454c-0.047-0.185-0.137-0.274-0.273-0.274v-0.729
		c0.09,0,0.136-0.091,0.18-0.183c0.046-0.089,0.093-0.184,0.093-0.362c0-0.092-0.047-0.183-0.093-0.273
		c-0.09-0.092-0.133-0.185-0.226-0.274l-0.044-0.728l-0.229-5.282c0-0.09-0.049-0.185-0.136-0.185c-0.046,0-0.093,0.095-0.093,0.185
		l-0.269,5.282v0.728c-0.093,0.09-0.186,0.183-0.232,0.274c-0.046,0.091-0.09,0.182-0.09,0.273c0,0.179,0.044,0.273,0.09,0.362
		c0.046,0.092,0.093,0.183,0.139,0.183v0.729c-0.093,0-0.185,0.09-0.272,0.274c-0.093,0.087-0.137,0.271-0.137,0.454
		c0,0.089,0.044,0.271,0.137,0.364c0,0.092,0.087,0.181,0.179,0.273v0.729c-0.365,0.181-0.82,0.547-1.229,0.82
		c-0.501,0.363-0.863,0.819-1.093,1.273c-0.228,0.456-0.228,0.821-0.228,1.273c0,0.273,0.089,0.641,0.182,0.822
		c-1.501,0.817-3.275,1.912-4.916,3.28c-1.64,1.362-3.096,2.911-3.823,4.553c-1.551,3.55-0.78,7.012-0.186,8.836h-1.049
		c-0.588,0-1.09,0.452-1.09,1.093c0,0.544,0.501,1.089,1.09,1.089h0.867v10.113c-0.91,0.179-1.641,1.091-1.641,2.094
		c0,0.728,0.458,1.273,1.003,1.638v8.198h-4.507v-10.839h-6.238v-2.64h0.545c0.548,0,1.006-0.458,1.006-1.005
		c0-0.635-0.458-1.091-1.006-1.091h-0.545c1.003-2.368,3.641-10.021,0.229-17.762c-1.322-3.096-4.006-5.919-7.061-8.468
		c-3.003-2.459-6.284-4.557-8.966-6.104c0.134-0.366,0.224-0.91,0.27-1.549c0.044-0.637-0.045-1.455-0.412-2.276
		c-0.362-0.82-1.179-1.64-2-2.276c-0.82-0.639-1.644-1.186-2.281-1.549l-0.09-1.364c0.183-0.185,0.366-0.273,0.458-0.549
		c0.09-0.181,0.18-0.456,0.18-0.729c0-0.275-0.09-0.547-0.226-0.818c-0.136-0.183-0.322-0.363-0.5-0.456l-0.047-1.273
		c0.136-0.093,0.226-0.275,0.319-0.368c0.093-0.181,0.139-0.363,0.139-0.637c0-0.181-0.046-0.454-0.185-0.639
		c-0.09-0.179-0.226-0.271-0.366-0.361l-0.043-1.366l-0.458-9.836c0-0.091-0.087-0.183-0.226-0.273
		c-0.136,0-0.226,0.091-0.226,0.273l-0.455,9.836l-0.05,1.366c-0.133,0.09-0.316,0.183-0.405,0.361
		c-0.093,0.185-0.183,0.458-0.183,0.639c0,0.273,0.09,0.456,0.183,0.637c0.089,0.093,0.182,0.275,0.318,0.368l-0.046,1.273
		c-0.229,0.093-0.365,0.273-0.548,0.456c-0.09,0.271-0.182,0.543-0.182,0.818c0,0.272,0.092,0.548,0.182,0.729
		c0.093,0.275,0.232,0.364,0.412,0.549l-0.046,1.364c-0.638,0.363-1.504,0.91-2.275,1.549c-0.867,0.637-1.641,1.456-2.003,2.276
		c-0.365,0.821-0.455,1.64-0.455,2.276c0.09,0.639,0.18,1.183,0.313,1.549c-2.684,1.547-6.006,3.645-8.969,6.104
		c-3.052,2.549-5.739,5.372-7.102,8.468c-3.368,7.741-0.774,15.394,0.272,17.762h-0.548c-0.545,0-1.047,0.456-1.047,1.091
		c0,0.547,0.502,1.005,1.047,1.005h0.232v2.64h-5.922v10.839h-2.597l-0.047-27.052h1.416c0.951,0,1.729-0.819,1.729-1.729
		c0-0.999-0.779-1.729-1.729-1.729h-1.458l-0.136-25.957h0.501c0.817,0,1.545-0.639,1.545-1.459c0-0.91-0.728-1.547-1.545-1.547
		h-0.548l-0.093-21.039h0.641c0.728,0,1.365-0.637,1.365-1.366c0-0.638-0.458-1.185-1.049-1.274v-4.192l0.049-0.181
		c-0.049-0.091-0.049-0.181-0.049-0.274v-1.729h0.548c0.411,0,0.681-0.274,0.681-0.639c0-0.365-0.27-0.728-0.681-0.728h-0.777
		c0.365-1.094,0.864-3.278-0.087-5.463c-0.455-1.003-1.368-2.006-2.411-2.824c-1.006-0.91-2.143-1.549-3.056-2.095
		c0.047-0.091,0.093-0.273,0.093-0.548c0-0.182,0-0.452-0.093-0.729c-0.182-0.364-0.408-0.636-0.727-0.819
		c-0.273-0.181-0.548-0.362-0.728-0.455l-0.046-0.546c0.046,0,0.133-0.09,0.133-0.183c0.05,0,0.093-0.091,0.093-0.183
		c0-0.09-0.043-0.183-0.093-0.272c-0.043-0.091-0.087-0.182-0.18-0.182v-0.455c0.047,0,0.093-0.09,0.093-0.09
		c0.044-0.093,0.087-0.184,0.087-0.276c0,0-0.043-0.09-0.087-0.183c0-0.089-0.093-0.089-0.139-0.089v-0.456l-0.136-3.37
		c0,0-0.044-0.091-0.087-0.091c-0.049,0-0.093,0.091-0.093,0.091l-0.139,3.37l-0.046,0.456c-0.044,0-0.087,0-0.087,0.089
		c-0.093,0.093-0.093,0.183-0.093,0.183c0,0.092,0,0.183,0.043,0.276c0.05,0,0.05,0.09,0.137,0.09v0.455
		c-0.087,0-0.18,0.091-0.18,0.182c-0.09,0.09-0.09,0.183-0.09,0.272c0,0.092,0,0.183,0.09,0.183c0,0.093,0.043,0.183,0.093,0.183
		v0.546c-0.229,0.093-0.505,0.274-0.777,0.455c-0.319,0.184-0.545,0.455-0.681,0.819c-0.093,0.276-0.139,0.547-0.139,0.729
		c0,0.274,0.046,0.457,0.092,0.548c-0.91,0.546-2.049,1.185-3.052,2.095c-1,0.818-1.913,1.821-2.371,2.824
		c-0.997,2.185-0.498,4.369-0.136,5.463h-0.636c-0.409,0-0.684,0.363-0.684,0.728c0,0.365,0.275,0.639,0.684,0.639h0.549v6.376
		c-0.591,0.089-1.049,0.636-1.049,1.274c0,0.729,0.637,1.366,1.365,1.366h0.637l-0.086,21.039h-0.551
		c-0.818,0-1.548,0.637-1.548,1.547c0,0.82,0.73,1.459,1.548,1.459h0.5l-0.136,25.957h-1.455c-0.959,0-1.731,0.73-1.731,1.729
		c0,0.91,0.772,1.729,1.731,1.729h1.455l-0.093,46.907h-4.913v-2.642h0.5c0.593,0,1.048-0.456,1.048-1.003
		c0-0.637-0.455-1.093-1.048-1.093h-0.542c1.042-2.367,3.684-10.018,0.269-17.76c-1.322-3.098-4.055-5.921-7.107-8.469
		c-2.957-2.463-6.235-4.554-8.968-6.104c0.136-0.364,0.275-0.912,0.275-1.455c0.043-0.731-0.046-1.549-0.365-2.368
		c-0.412-0.82-1.186-1.64-2.006-2.276c-0.82-0.638-1.638-1.186-2.276-1.55l-0.092-1.363c0.183-0.184,0.319-0.275,0.412-0.549
		c0.137-0.183,0.229-0.456,0.229-0.728c0-0.275-0.092-0.548-0.275-0.821c-0.09-0.181-0.273-0.365-0.452-0.456l-0.093-1.275
		c0.136-0.091,0.272-0.271,0.319-0.364c0.136-0.183,0.136-0.363,0.136-0.637c0-0.181-0.046-0.458-0.183-0.637
		c-0.092-0.183-0.179-0.273-0.365-0.364l-0.043-1.365l-0.455-9.837c0-0.092-0.093-0.183-0.232-0.275c-0.09,0-0.18,0.093-0.18,0.275
		l-0.455,9.837l-0.093,1.365c-0.136,0.091-0.27,0.182-0.362,0.364c-0.093,0.179-0.183,0.456-0.183,0.637
		c0,0.273,0.043,0.454,0.183,0.637c0.046,0.093,0.185,0.273,0.272,0.364l-0.046,1.275c-0.226,0.091-0.365,0.275-0.5,0.456
		c-0.135,0.273-0.229,0.546-0.229,0.821c0,0.271,0.044,0.545,0.229,0.728c0.091,0.273,0.181,0.365,0.366,0.549l-0.046,1.363
		c-0.641,0.364-1.504,0.912-2.275,1.55c-0.867,0.637-1.642,1.456-2.009,2.276c-0.316,0.819-0.407,1.637-0.407,2.368
		c0,0.543,0.181,1.091,0.273,1.455c-2.687,1.551-6.009,3.642-8.971,6.104c-3.053,2.548-5.737,5.371-7.059,8.469
		c-3.415,7.742-0.821,15.393,0.269,17.76h-0.588c-0.592,0-1.047,0.456-1.047,1.093c0,0.547,0.455,1.003,1.047,1.003h0.226v2.642
		c-4.871-8.425-21.339-9.673-26.857,1.962l-0.073-12.937h0.539c0.877,0,1.595-0.735,1.595-1.607c0-0.877-0.718-1.599-1.595-1.599
		h-0.565l-0.128-22.263h0.694c0.773,0,1.416-0.634,1.416-1.416c0-0.682-0.477-1.248-1.105-1.392v-6.665h0.616
		c0.389,0,0.722-0.337,0.722-0.745c0-0.399-0.333-0.724-0.722-0.724h-0.836c0.4-1.195,0.915-3.485-0.115-5.816
		c-0.49-1.081-1.44-2.109-2.548-3.012c-1.056-0.874-2.24-1.621-3.191-2.162c0.038-0.153,0.077-0.334,0.09-0.554
		c0.011-0.27-0.013-0.555-0.142-0.834c-0.129-0.311-0.411-0.594-0.722-0.825c-0.281-0.219-0.591-0.399-0.81-0.527l-0.013-0.503
		c0.052-0.051,0.104-0.116,0.13-0.181c0.05-0.089,0.077-0.177,0.077-0.268c0-0.106-0.027-0.22-0.077-0.297
		c-0.052-0.078-0.104-0.13-0.181-0.181l-0.026-0.437c0.05-0.041,0.09-0.091,0.117-0.157c0.038-0.049,0.064-0.128,0.064-0.204
		c0-0.077-0.026-0.167-0.078-0.23c-0.026-0.053-0.077-0.104-0.129-0.157l-0.025-0.464l-0.154-3.524c0-0.039-0.025-0.076-0.078-0.076
		s-0.078,0.025-0.09,0.076l-0.154,3.524l-0.014,0.464c-0.063,0.054-0.114,0.104-0.142,0.157c-0.048,0.063-0.063,0.153-0.063,0.23
		c0,0.076,0.015,0.155,0.052,0.204c0.025,0.066,0.077,0.116,0.101,0.157l-0.011,0.437c-0.065,0.051-0.142,0.103-0.168,0.181
		c-0.063,0.077-0.09,0.19-0.09,0.297c0,0.091,0.026,0.179,0.078,0.268c0.025,0.064,0.09,0.13,0.142,0.181l-0.027,0.503
		c-0.231,0.128-0.541,0.309-0.81,0.527c-0.31,0.231-0.592,0.515-0.708,0.825c-0.142,0.279-0.168,0.564-0.154,0.834
		c0,0.22,0.05,0.4,0.102,0.554c-0.965,0.541-2.148,1.288-3.218,2.162c-1.082,0.902-2.058,1.931-2.534,3.012
		c-1.017,2.331-0.527,4.621-0.116,5.816h-0.695c-0.412,0-0.745,0.324-0.745,0.724c0,0.408,0.333,0.745,0.745,0.745h0.565v6.665
		c-0.618,0.155-1.081,0.722-1.081,1.392c0,0.782,0.658,1.416,1.441,1.416h0.668l-0.126,22.263h-0.542
		c-0.888,0-1.622,0.722-1.622,1.599c0,0.872,0.733,1.607,1.622,1.607h0.542l-0.13,19.809c-6.354-13.152-19.374-22.46-34.682-23.566
		v-1.554c0-0.249-0.098-0.493-0.277-0.672c-0.181-0.179-0.417-0.277-0.672-0.277h-0.78l-0.612-15.93
		c3.458-1.442,6.14-4.535,6.835-8.493c0.823-4.698-1.377-9.22-5.184-11.592c1.627,2.356,2.357,5.331,1.824,8.384
		c-1.076,6.164-6.966,10.29-13.122,9.211c-1.477-0.258-2.826-0.79-4.029-1.533c1.672,2.42,4.266,4.19,7.392,4.739
		c1.938,0.342,3.826,0.116,5.567-0.478l-0.625,15.691h-0.762c-0.536,0-0.977,0.44-0.977,0.979v1.491
		c-16.508,0.926-30.437,11.388-36.389,25.986c-0.831-0.951-1.807-1.857-2.837-2.721c-1.999-1.66-4.213-3.078-6.06-4.123
		c0.091-0.246,0.185-0.615,0.185-0.983c0.029-0.493-0.031-1.048-0.247-1.6c-0.278-0.555-0.801-1.109-1.354-1.539
		c-0.554-0.433-1.107-0.801-1.539-1.048l-0.062-0.922c0.123-0.122,0.215-0.185,0.279-0.37c0.092-0.121,0.154-0.309,0.154-0.491
		c0-0.185-0.062-0.371-0.187-0.557c-0.059-0.121-0.184-0.245-0.305-0.307l-0.063-0.862c0.092-0.06,0.184-0.183,0.217-0.246
		c0.092-0.124,0.092-0.245,0.092-0.431c0-0.123-0.033-0.309-0.125-0.428c-0.062-0.126-0.121-0.186-0.247-0.25l-0.029-0.922
		l-0.307-6.646c0-0.061-0.063-0.121-0.157-0.185c-0.06,0-0.121,0.063-0.121,0.185l-0.308,6.646l-0.063,0.922
		c-0.091,0.064-0.181,0.124-0.244,0.25c-0.063,0.119-0.124,0.305-0.124,0.428c0,0.186,0.03,0.307,0.124,0.431
		c0.031,0.063,0.125,0.187,0.184,0.246l-0.031,0.862c-0.153,0.062-0.247,0.186-0.338,0.307c-0.091,0.186-0.154,0.372-0.154,0.557
		c0,0.183,0.03,0.37,0.154,0.491c0.061,0.186,0.122,0.248,0.248,0.37l-0.032,0.922c-0.433,0.247-1.017,0.615-1.537,1.048
		c-0.587,0.43-1.11,0.984-1.358,1.539c-0.214,0.552-0.275,1.106-0.275,1.6c0,0.368,0.122,0.737,0.185,0.983
		c-1.815,1.045-4.06,2.463-6.062,4.123c-2.064,1.725-3.878,3.631-4.771,5.725c-0.569,1.289-0.888,2.573-1.04,3.804
		c-5.989-2.329-11.055-5.28-15.109-8.729c0.168-0.33,0.29-0.685,0.29-1.083c0-0.979-0.597-1.82-1.449-2.192l-0.606-9.465h-0.71
		l-0.609,9.465c-0.852,0.372-1.44,1.213-1.44,2.192c0,0.398,0.113,0.753,0.287,1.083c-4.427,3.746-10.111,6.97-16.78,9.366
		c-10.248,3.668-17.086,10.237-17.086,17.74c0,2.148,0.565,4.229,1.603,6.174H56.66v-17.276h0.238c0.681,0,1.235-0.548,1.235-1.232
		v-0.699c0-0.675-0.554-1.23-1.235-1.23h-1.615c0.067-0.458,0.113-0.91,0.113-1.397c0-3.293-1.745-6.188-4.36-7.8
		c-1.626-0.999-3.012-2.297-4.104-3.826c0.208-0.194,0.33-0.471,0.33-0.773c0-0.429-0.255-0.807-0.632-0.966l-0.27-4.167h-0.31
		l-0.266,4.167c-0.377,0.159-0.635,0.537-0.635,0.966c0,0.303,0.127,0.579,0.333,0.773c-1.104,1.523-2.493,2.829-4.099,3.826
		c-2.618,1.611-4.366,4.507-4.366,7.8c0,0.487,0.044,0.939,0.122,1.397h-1.672c-0.679,0-1.227,0.556-1.227,1.23v0.699
		c0,0.685,0.548,1.232,1.227,1.232h0.281v18.118c-1.386-4.794-4.998-8.634-9.667-10.33c0.006-0.076,0.023-0.151,0.023-0.229
		c0-2.306-1.47-4.244-3.522-4.989l-0.75-2.274c0.147-0.208,0.25-0.446,0.25-0.715c0-0.523-0.322-0.964-0.765-1.17l-0.467-7.177
		c0-0.033-0.039-0.057-0.078-0.057c-0.026,0-0.061,0.023-0.061,0.057l-0.467,7.177c-0.44,0.206-0.759,0.646-0.759,1.17
		c0,0.269,0.098,0.505,0.237,0.709l-0.745,2.28c-2.049,0.745-3.516,2.689-3.516,4.989c0,0.078,0.018,0.153,0.018,0.229
		c-5.992,2.177-10.302,7.871-10.302,14.623c0,1.618,0.31,3.149,0.768,4.619H0.555v2.359H0.001v88.228h1024v-88.228v-2.359H1018.613z
		 M984.087,674.734c0-2.436,0.72-4.481,1.701-5.095c0.972,0.613,1.685,2.659,1.685,5.095v9.561h-3.386V674.734z M974.065,673.717
		c0-2.687,1.812-4.949,4.285-5.642c2.463,0.692,4.279,2.955,4.279,5.642v10.577h-6.493v-0.163h-2.071V673.717z M969.247,674.734
		c0-2.436,0.716-4.481,1.689-5.095c0.982,0.613,1.696,2.659,1.696,5.095v9.397h-3.386V674.734z M797.95,598.465
		c-0.578-1.649,2.139-1.568,2.446-2.83c0.322,1.262,3.038,1.181,2.446,2.83c-0.079,0.258-0.168,0.462,0.039,0.72
		c0.192,0.258,0.166,0.464,0.166,0.464v2.612h-5.277v-2.612c0,0-0.051-0.206,0.156-0.464
		C798.131,598.927,798.053,598.723,797.95,598.465z M708.726,537.787v-4.713c0-1.832,1.233-3.37,2.918-3.842
		c1.676,0.472,2.915,2.011,2.915,3.842v4.823h-5.835L708.726,537.787z M635.223,598.228c0-2.438,0.72-4.48,1.702-5.098
		c0.972,0.617,1.685,2.66,1.685,5.098v7.509h-3.387V598.228z M625.378,605.566v-6.924c0-2.687,1.813-4.949,4.286-5.642
		c2.463,0.692,4.278,2.955,4.278,5.642v7.085h-8.568L625.378,605.566z M620.383,598.228c0-2.438,0.715-4.48,1.689-5.098
		c0.981,0.617,1.696,2.66,1.696,5.098v7.532h-3.386V598.228z M400.787,598.228c0-2.438,0.713-4.48,1.696-5.098
		c0.974,0.617,1.689,2.66,1.689,5.098v7.532h-3.385V598.228z M390.611,598.642c0-2.687,1.817-4.949,4.278-5.642
		c2.476,0.692,4.287,2.955,4.287,5.642v6.924l0.003,0.161h-8.569V598.642z M385.945,598.228c0-2.438,0.713-4.48,1.684-5.098
		c0.983,0.617,1.703,2.66,1.703,5.098v7.509h-3.387V598.228z M309.998,533.074c0-1.832,1.237-3.37,2.913-3.842
		c1.685,0.472,2.919,2.011,2.919,3.842v4.713l0.002,0.109h-5.834V533.074z M221.713,598.465c-0.591-1.649,2.125-1.568,2.446-2.83
		c0.308,1.262,3.023,1.181,2.446,2.83c-0.104,0.258-0.182,0.462,0.024,0.72s0.156,0.464,0.156,0.464v2.612h-5.278v-2.612
		c0,0-0.026-0.206,0.167-0.464C221.881,598.927,221.792,598.723,221.713,598.465z M51.923,674.734c0-2.436,0.713-4.481,1.696-5.095
		c0.974,0.613,1.689,2.659,1.689,5.095v9.397h-3.385V674.734z M41.926,673.717c0-2.687,1.817-4.949,4.278-5.642
		c2.476,0.692,4.287,2.955,4.287,5.642v10.414h-2.073v0.163h-6.493V673.717z M37.082,674.734c0-2.436,0.713-4.481,1.684-5.095
		c0.983,0.613,1.702,2.659,1.702,5.095v9.561h-3.386V674.734z"/>
</g>
</svg>
