<svg width="220" height="138" viewBox="0 0 220 138" fill="none" xmlns="http://www.w3.org/2000/svg">
<g clipPath="url(#clip0_176_11207)">
<path d="M169.898 0.320312H31.4961C28.1445 0.320312 25.4375 3.02735 25.4375 6.37891V96.2266C25.4375 99.5781 28.1445 102.285 31.4961 102.285H169.898C173.25 102.285 175.957 99.5781 175.957 96.2266V6.37891C176 3.02735 173.293 0.320312 169.898 0.320312Z" fill="#2b9e76"/>
<path d="M39.793 15.4023C41.1694 15.4023 42.2852 14.2866 42.2852 12.9102C42.2852 11.5338 41.1694 10.418 39.793 10.418C38.4166 10.418 37.3008 11.5338 37.3008 12.9102C37.3008 14.2866 38.4166 15.4023 39.793 15.4023Z" fill="white"/>
<path d="M65.4883 15.4023C66.8647 15.4023 67.9805 14.2866 67.9805 12.9102C67.9805 11.5338 66.8647 10.418 65.4883 10.418C64.1119 10.418 62.9961 11.5338 62.9961 12.9102C62.9961 14.2866 64.1119 15.4023 65.4883 15.4023Z" fill="white"/>
<path d="M52.6406 15.4023C54.017 15.4023 55.1328 14.2866 55.1328 12.9102C55.1328 11.5338 54.017 10.418 52.6406 10.418C51.2642 10.418 50.1484 11.5338 50.1484 12.9102C50.1484 14.2866 51.2642 15.4023 52.6406 15.4023Z" fill="white"/>
<path d="M168.523 97.3867H32.9141C31.4961 97.3867 30.3359 96.2266 30.3359 94.8086V23.9102H171.145V94.8516C171.102 96.2695 169.984 97.3867 168.523 97.3867Z" fill="white"/>
<path d="M105.789 66.75H131.441V68.5977H105.789V66.75Z" fill="#2b9e76" fill-opacity="0.3"/>
<path d="M105.789 57.6406H141.281V59.4883H105.789V57.6406Z" fill="#2b9e76" fill-opacity="0.3"/>
<path d="M93.5469 80.4551H65.5312C63.9414 80.4551 62.6523 79.166 62.6523 77.5762V43.6309C62.6523 42.041 63.9414 40.752 65.5312 40.752H85.2109L96.3398 52.0957V77.5762C96.4258 79.209 95.0937 80.4551 93.5469 80.4551Z" fill="#A0D8B9"/>
<path d="M96.4258 52.0957H85.2109V40.8379L96.4258 52.0957Z" fill="#2b9e76"/>
<path d="M89.2031 67.6523H69.6953V69.1562H82.1133V72.25C82.1133 73.4102 83.0586 74.3984 84.2617 74.3984H85.6797C86.8398 74.3984 87.8281 73.4531 87.8281 72.25V69.1992H89.2031V67.6523Z" fill="#2b9e76" fill-opacity="0.3"/>
<path d="M84.9922 70.6172C84.6055 70.6172 84.3047 70.9609 84.3047 71.3047V74.3984H85.6797V71.3477C85.6797 70.918 85.3789 70.6172 84.9922 70.6172Z" fill="#2b9e76"/>
<path d="M75.2812 58.5859L74.1641 57.5547L72.918 58.8438L71.6289 57.5547L70.5547 58.5859L71.8438 59.918L70.5547 61.207L71.6289 62.2812L72.918 60.9492L74.1641 62.2812L75.2812 61.207L73.9922 59.918L75.2812 58.5859Z" fill="#2b9e76" fill-opacity="0.3"/>
<path d="M88.3867 58.5859L87.3125 57.5547L86.0234 58.8438L84.7773 57.5547L83.6602 58.5859L84.9492 59.918L83.6602 61.207L84.7773 62.2812L86.0234 60.9492L87.3125 62.2812L88.3867 61.207L87.0977 59.918L88.3867 58.5859Z" fill="#2b9e76" fill-opacity="0.3"/>
<path d="M208.18 37.5312H191.465L183.086 52.0117L191.465 66.4922H208.18L216.559 52.0117L208.18 37.5312Z" fill="#A0D8B9"/>
<path d="M199.844 58.1992C203.261 58.1992 206.031 55.429 206.031 52.0117C206.031 48.5945 203.261 45.8242 199.844 45.8242C196.426 45.8242 193.656 48.5945 193.656 52.0117C193.656 55.429 196.426 58.1992 199.844 58.1992Z" fill="white"/>
<path d="M109.227 113.328H137.285V115.176H109.227V113.328Z" fill="#2b9e76" fill-opacity="0.3"/>
<path d="M109.227 124.715H173.723V126.562H109.227V124.715Z" fill="#2b9e76" fill-opacity="0.3"/>
<path d="M80.7813 136.531C88.2802 136.531 94.3594 130.452 94.3594 122.953C94.3594 115.454 88.2802 109.375 80.7813 109.375C73.2823 109.375 67.2031 115.454 67.2031 122.953C67.2031 130.452 73.2823 136.531 80.7813 136.531Z" fill="#A0D8B9"/>
<path d="M86.9686 118.012L85.6367 116.723L80.7811 121.535L75.8827 116.723L74.5938 118.012L79.4921 122.824L74.5938 127.637L75.8827 128.926L80.7811 124.07L85.6367 128.926L86.9686 127.637L82.0702 122.824L86.9686 118.012Z" fill="#2b9e76"/>
<path d="M53.3672 136.531C57.2353 136.531 60.3711 133.395 60.3711 129.527C60.3711 125.659 57.2353 122.523 53.3672 122.523C49.499 122.523 46.3633 125.659 46.3633 129.527C46.3633 133.395 49.499 136.531 53.3672 136.531Z" fill="#2b9e76" fill-opacity="0.3"/>
<path d="M56.5469 127.594L55.3008 126.305L53.3672 128.238L51.3906 126.305L50.1016 127.594L52.0352 129.527L50.1016 131.418L51.3906 132.75L53.3672 130.816L55.3008 132.75L56.5469 131.418L54.6133 129.527L56.5469 127.594Z" fill="#A0D8B9"/>
<path d="M206.465 135.629C207.281 135.199 208.012 134.684 208.656 134.039C212.309 130.387 211.965 124.371 207.797 121.191L188.332 106.195C191.641 101.598 193.531 95.9688 193.531 89.8672C193.531 74.3555 180.984 61.8086 165.473 61.8086C153.613 61.8086 143.516 69.1563 139.391 79.5117H58.6953V81.3594H138.789C137.93 84.0234 137.457 86.9024 137.457 89.8672C137.457 105.379 150.004 117.926 165.516 117.926C171.059 117.926 176.301 116.336 180.598 113.5L195.723 133.137C196.539 134.211 197.57 135.027 198.688 135.586H0V137.434H220V135.586L206.465 135.629Z" fill="#2b9e76"/>
<path d="M165.473 112.037C177.694 112.037 187.602 102.13 187.602 89.9082C187.602 77.6867 177.694 67.7793 165.473 67.7793C153.251 67.7793 143.344 77.6867 143.344 89.9082C143.344 102.13 153.251 112.037 165.473 112.037Z" fill="white"/>
<path d="M178.063 83.8906L176.988 82C176.387 80.9687 175.055 80.625 174.066 81.1836C171.574 83.0742 168.266 81.1836 168.652 78.0898C168.652 76.9297 167.707 75.9414 166.504 75.9414H164.355C163.195 75.9414 162.207 76.8867 162.207 78.0898C162.594 81.1836 159.285 83.0742 156.793 81.1836C155.762 80.582 154.43 80.9687 153.871 82L152.797 83.8906C152.195 84.9219 152.582 86.2539 153.613 86.8125C156.492 88.0156 156.492 91.8398 153.613 93.0859C152.582 93.6875 152.238 95.0195 152.797 96.0078L153.871 97.8984C154.473 98.9297 155.805 99.2734 156.793 98.7148C159.285 96.8242 162.594 98.7148 162.207 101.809C162.207 102.969 163.152 103.957 164.355 103.957H166.504C167.664 103.957 168.652 103.012 168.652 101.809C168.266 98.7148 171.574 96.8242 174.066 98.7148C175.098 99.3164 176.43 98.9297 176.988 97.8984L178.063 96.0078C178.664 94.9766 178.277 93.6445 177.246 93.0859C174.367 91.8828 174.367 88.0586 177.246 86.8125C178.363 86.2109 178.664 84.9219 178.063 83.8906Z" fill="white"/>
<path d="M166.546 104.817H164.397C162.722 104.817 161.347 103.442 161.347 101.767C161.819 99.4033 159.069 97.8564 157.308 99.4033C155.89 100.263 153.913 99.747 153.14 98.2861L152.065 96.3954C151.206 94.9775 151.722 93.0009 153.183 92.2275C155.46 91.4111 155.46 88.3603 153.183 87.5869C151.722 86.7704 151.206 84.7939 152.065 83.4189L153.14 81.5283C153.956 80.0673 156.019 79.5517 157.437 80.497C159.155 81.915 161.776 80.454 161.39 78.2197C161.304 76.5009 162.722 75.04 164.44 75.083H166.589C168.265 75.083 169.64 76.4579 169.64 78.1337C169.167 80.497 171.917 82.0439 173.679 80.497C175.097 79.6376 177.073 80.1533 177.847 81.6142L178.921 83.5048C179.78 84.9228 179.265 86.8994 177.804 87.6728C175.526 88.4892 175.526 91.54 177.804 92.3134C179.265 93.1298 179.78 95.1064 178.921 96.4814L177.847 98.372C177.03 99.8329 175.054 100.349 173.679 99.4892C171.874 97.9423 169.21 99.4892 169.64 101.852C169.597 103.399 168.222 104.817 166.546 104.817ZM163.151 101.81C163.194 102.454 163.71 102.97 164.355 102.97H166.503C167.147 102.97 167.706 102.454 167.706 101.81C167.147 98.1142 171.573 95.5361 174.538 97.8564C175.097 98.2001 175.87 97.9423 176.171 97.3837L177.245 95.4931C177.589 94.9345 177.374 94.1611 176.815 93.8603C173.335 92.4853 173.335 87.372 176.815 85.997C177.374 85.6533 177.589 84.8798 177.245 84.3642L176.171 82.4736C175.827 81.915 175.097 81.6572 174.538 82.0009C171.616 84.3642 167.147 81.7861 167.706 78.0478C167.663 77.4033 167.147 76.8876 166.503 76.8876H164.355C163.71 76.8876 163.151 77.4033 163.151 78.0478C163.71 81.7431 159.284 84.3212 156.319 82.0009C155.761 81.6572 154.987 81.915 154.687 82.4736L153.612 84.3642C153.269 84.9228 153.483 85.6962 154.042 85.997C157.522 87.372 157.522 92.4853 154.042 93.8603C153.483 94.204 153.269 94.9775 153.612 95.4931L154.687 97.3837C155.03 97.9423 155.761 98.2001 156.319 97.8564C159.284 95.4931 163.71 98.0712 163.151 101.81Z" fill="#2b9e76"/>
<path d="M165.469 94.2031C167.842 94.2031 169.766 92.2793 169.766 89.9062C169.766 87.5332 167.842 85.6094 165.469 85.6094C163.096 85.6094 161.172 87.5332 161.172 89.9062C161.172 92.2793 163.096 94.2031 165.469 94.2031Z" fill="#A0D8B9"/>
</g>
<defs>
<clipPath id="clip0_176_11207">
<rect width="220" height="138" fill="white"/>
</clipPath>
</defs>
</svg>
