<svg width="28" height="28" viewBox="0 0 28 28" fill="none" xmlns="http://www.w3.org/2000/svg">
<path d="M7.7057 3.7978C8.64338 2.86012 9.91515 2.33333 11.2412 2.33333H16.7591C18.0852 2.33333 19.3569 2.86012 20.2946 3.7978L24.2024 7.70554C25.14 8.64322 25.6668 9.91499 25.6668 11.2411V16.7589C25.6668 18.085 25.14 19.3568 24.2024 20.2945L20.2946 24.2022C19.3569 25.1399 18.0852 25.6667 16.7591 25.6667H11.2412C9.91515 25.6667 8.64338 25.1399 7.7057 24.2022L3.79796 20.2945C2.86028 19.3568 2.3335 18.085 2.3335 16.7589V11.2411C2.3335 9.91499 2.86028 8.64322 3.79796 7.70554L7.7057 3.7978Z" stroke="#868686" stroke-width="1.5" stroke-linecap="round" stroke-linejoin="round"/>
<path d="M14 9.33333V14" stroke="#868686" stroke-width="1.5" stroke-linecap="round" stroke-linejoin="round"/>
<path d="M14 18.6667H14.0117" stroke="#868686" stroke-width="2" stroke-linecap="round" stroke-linejoin="round"/>
</svg>
