<svg
    xmlns="http://www.w3.org/2000/svg"
    width="20"
    height="20"
    viewBox="0 0 20 20"
    fill="none"
>
    <path
    d="M6.68408 11.342C6.88608 10.938 7.00008 10.482 7.00008 10C7.00008 9.518 6.88608 9.062 6.68408 8.658V11.342ZM6.68408 11.342C6.38178 11.9464 5.88428 12.431 5.27217 12.7174C4.66007 13.0037 3.96921 13.075 3.31152 12.9197C2.65384 12.7644 2.06785 12.3916 1.64849 11.8617C1.22914 11.3318 1.00098 10.6758 1.00098 10C1.00098 9.32423 1.22914 8.66825 1.64849 8.13833C2.06785 7.60841 2.65384 7.2356 3.31152 7.0803C3.96921 6.92499 4.66007 6.99629 5.27217 7.28264C5.88428 7.56899 6.38178 8.05361 6.68408 8.658V11.342ZM6.68408 11.342L13.3161 14.658L6.68408 11.342ZM6.68408 8.658L13.3161 5.342L6.68408 8.658ZM13.3161 5.342C13.4923 5.6944 13.7362 6.00864 14.0339 6.26678C14.3316 6.52491 14.6772 6.72189 15.051 6.84646C15.4248 6.97103 15.8195 7.02075 16.2125 6.99279C16.6055 6.96483 16.9892 6.85973 17.3416 6.6835C17.694 6.50727 18.0082 6.26335 18.2664 5.96567C18.5245 5.66799 18.7215 5.32239 18.846 4.94858C18.9706 4.57478 19.0203 4.1801 18.9924 3.78708C18.9644 3.39407 18.8593 3.0104 18.6831 2.658C18.3272 1.94629 17.7031 1.40512 16.9482 1.15354C16.1932 0.901962 15.3693 0.960579 14.6576 1.3165C13.9459 1.67242 13.4047 2.29649 13.1531 3.05142C12.9015 3.80634 12.9602 4.63029 13.3161 5.342V5.342ZM13.3161 14.658C12.9602 15.3698 12.9016 16.1939 13.1533 16.9489C13.4049 17.704 13.9462 18.3281 14.6581 18.684C15.3699 19.0399 16.194 19.0985 16.949 18.8468C17.704 18.5951 18.3282 18.0538 18.6841 17.342C19.04 16.6302 19.0986 15.8061 18.8469 15.0511C18.5952 14.296 18.0539 13.6719 17.3421 13.316C16.9896 13.1398 16.6059 13.0347 16.2128 13.0067C15.8197 12.9788 15.425 13.0286 15.0511 13.1532C14.2961 13.4049 13.672 13.9462 13.3161 14.658V14.658Z"
    stroke="#868686"
    stroke-width="1.5"
    stroke-linecap="round"
    stroke-linejoin="round"
    />
</svg>