<svg width="24" height="24" viewBox="0 0 24 24" fill="none" xmlns="http://www.w3.org/2000/svg">
<g clipPath="url(#clip0_36_1182)">
<g clipPath="url(#clip1_36_1182)">
<path d="M22.2 2.16297C21.6299 1.68733 20.9611 1.34462 20.242 1.15971C19.523 0.974805 18.7718 0.952348 18.043 1.09397L16.279 1.52597C15.3584 1.69467 14.5262 2.18081 13.9271 2.89979C13.3279 3.61878 12.9999 4.52508 13 5.46097V20.928C12.3369 21.025 11.6631 21.025 11 20.928V5.46097C11.0033 4.53371 10.6828 3.63438 10.0939 2.91818C9.50493 2.20197 8.68444 1.71382 7.774 1.53797L5.9 1.08197C5.17916 0.950066 4.43813 0.978222 3.72938 1.16445C3.02062 1.35067 2.36147 1.69042 1.79857 2.15963C1.23567 2.62884 0.782786 3.21604 0.471982 3.87968C0.161178 4.54332 4.88125e-05 5.26716 0 5.99997L0 16.793C5.74559e-05 17.9638 0.410977 19.0974 1.16113 19.9963C1.91129 20.8952 2.95311 21.5024 4.105 21.712L10.391 22.855C11.455 23.0483 12.545 23.0483 13.609 22.855L19.9 21.712C21.051 21.5014 22.0916 20.8938 22.8408 19.9949C23.5899 19.0961 24.0002 17.9631 24 16.793V5.99997C24.0005 5.26742 23.8394 4.54377 23.5283 3.88056C23.2171 3.21736 22.7636 2.63091 22.2 2.16297Z" fill="#2b9e76"/>
</g>
</g>
<defs>
<clipPath id="clip0_36_1182">
<rect width="24" height="24" fill="#2b9e76"/>
</clipPath>
<clipPath id="clip1_36_1182">
<rect width="24" height="24" fill="#2b9e76"/>
</clipPath>
</defs>
</svg>
